  0
SECTION
  2
HEADER
  9
$ACADVER
  1
AC1018
  9
$ACADMAINTVER
 70
     0
  9
$DWGCODEPAGE
  3
ANSI_1252
  9
$EXTMIN
 10
139.614317929778
 20
35.2570991160661
 30
0.0
  9
$EXTMAX
 10
140.129102164079
 20
35.7515291700228
 30
0.0
  9
$LIMMIN
 10
0.0
 20
0.0
  9
$LIMMAX
 10
12.0
 20
9.0
  9
$ORTHOMODE
 70
     0
  9
$REGENMODE
 70
     1
  9
$FILLMODE
 70
     1
  9
$QTEXTMODE
 70
     0
  9
$MIRRTEXT
 70
     1
  9
$LTSCALE
 40
1.0
  9
$ATTMODE
 70
     1
  9
$TEXTSIZE
 40
0.2
  9
$TRACEWID
 40
0.05
  9
$TEXTSTYLE
  7
Standard
  9
$CLAYER
  8
0
  9
$CELTYPE
  6
ByLayer
  9
$CECOLOR
 62
   256
  9
$CELTSCALE
 40
1.0
  9
$DISPSILH
 70
     0
  9
$LUNITS
 70
     2
  9
$LUPREC
 70
     4
  9
$SKETCHINC
 40
0.1
  9
$FILLETRAD
 40
0.5
  9
$AUNITS
 70
     0
  9
$AUPREC
 70
     0
  9
$MENU
  1
.
  9
$ELEVATION
 40
0.0
  9
$PELEVATION
 40
0.0
  9
$THICKNESS
 40
0.0
  9
$LIMCHECK
 70
     0
  9
$CHAMFERA
 40
0.5
  9
$CHAMFERB
 40
0.5
  9
$CHAMFERC
 40
1.0
  9
$CHAMFERD
 40
0.0
  9
$SKPOLY
 70
     0
  9
$ANGBASE
 50
0.0
  9
$ANGDIR
 70
     0
  9
$PDMODE
 70
     0
  9
$PDSIZE
 40
0.0
  9
$PLINEWID
 40
0.0
  9
$SPLFRAME
 70
     0
  9
$SPLINETYPE
 70
     6
  9
$SPLINESEGS
 70
     8
  9
$HANDSEED
  5
00020005
  9
$SURFTAB1
 70
     6
  9
$SURFTAB2
 70
     6
  9
$SURFTYPE
 70
     6
  9
$SURFU
 70
     6
  9
$SURFV
 70
     6
  9
$UCSBASE
  2

  9
$UCSNAME
  2

  9
$UCSORG
 10
0.0
 20
0.0
 30
0.0
  9
$UCSXDIR
 10
1.0
 20
0.0
 30
0.0
  9
$UCSYDIR
 10
0.0
 20
1.0
 30
0.0
  9
$UCSORTHOREF
  2

  9
$UCSORTHOVIEW
 70
     0
  9
$UCSORGTOP
 10
0.0
 20
0.0
 30
0.0
  9
$UCSORGBOTTOM
 10
0.0
 20
0.0
 30
0.0
  9
$UCSORGLEFT
 10
0.0
 20
0.0
 30
0.0
  9
$UCSORGRIGHT
 10
0.0
 20
0.0
 30
0.0
  9
$UCSORGFRONT
 10
0.0
 20
0.0
 30
0.0
  9
$UCSORGBACK
 10
0.0
 20
0.0
 30
0.0
  9
$PUCSBASE
  2

  9
$PUCSNAME
  2

  9
$PUCSORG
 10
0.0
 20
0.0
 30
0.0
  9
$PUCSXDIR
 10
1.0
 20
0.0
 30
0.0
  9
$PUCSYDIR
 10
0.0
 20
1.0
 30
0.0
  9
$PUCSORTHOREF
  2

  9
$PUCSORTHOVIEW
 70
     0
  9
$PUCSORGTOP
 10
0.0
 20
0.0
 30
0.0
  9
$PUCSORGBOTTOM
 10
0.0
 20
0.0
 30
0.0
  9
$PUCSORGLEFT
 10
0.0
 20
0.0
 30
0.0
  9
$PUCSORGRIGHT
 10
0.0
 20
0.0
 30
0.0
  9
$PUCSORGFRONT
 10
0.0
 20
0.0
 30
0.0
  9
$PUCSORGBACK
 10
0.0
 20
0.0
 30
0.0
  9
$WORLDVIEW
 70
     1
  9
$SHADEDGE
 70
     3
  9
$SHADEDIF
 70
    70
  9
$TILEMODE
 70
     1
  9
$MAXACTVP
 70
    64
  9
$PINSBASE
 10
0.0
 20
0.0
 30
0.0
  9
$PLIMCHECK
 70
     0
  9
$PEXTMIN
 10
1.000000000000000E+20
 20
1.000000000000000E+20
 30
1.000000000000000E+20
  9
$PEXTMAX
 10
-1.000000000000000E+20
 20
-1.000000000000000E+20
 30
-1.000000000000000E+20
  9
$PLIMMIN
 10
0.0
 20
0.0
  9
$PLIMMAX
 10
12.0
 20
9.0
  9
$UNITMODE
 70
     0
  9
$VISRETAIN
 70
     1
  9
$PLINEGEN
 70
     0
  9
$PSLTSCALE
 70
     1
  9
$TREEDEPTH
 70
  3020
  9
$CMLSTYLE
  2
Standard
  9
$CMLJUST
 70
     0
  9
$CMLSCALE
 40
1.0
  9
$PROXYGRAPHICS
 70
     1
  9
$MEASUREMENT
 70
     0
  9
$CELWEIGHT
370
    -1
  9
$ENDCAPS
280
     0
  9
$JOINSTYLE
280
     0
  9
$LWDISPLAY
290
     0
  9
$INSUNITS
 70
     1
  9
$HYPERLINKBASE
  1

  9
$STYLESHEET
  1

  9
$XEDIT
290
     1
  9
$CEPSNTYPE
380
     0
  9
$PSTYLEMODE
290
     1
  9
$EXTNAMES
290
     1
  9
$PSVPSCALE
 40
0.0
  9
$OLESTARTUP
290
     0
  9
$SORTENTS
280
   127
  9
$INDEXCTL
280
     0
  9
$HIDETEXT
280
     1
  9
$XCLIPFRAME
290
     0
  9
$HALOGAP
280
     0
  9
$OBSCOLOR
 70
   257
  9
$OBSLTYPE
280
     0
  9
$INTERSECTIONDISPLAY
280
     0
  9
$INTERSECTIONCOLOR
 70
   257
  9
$DIMASSOC
280
     2
  9
$PROJECTNAME
  1

  0
ENDSEC
  0
SECTION
  2
CLASSES
  0
CLASS
  1
ACDBDICTIONARYWDFLT
  2
AcDbDictionaryWithDefault
  3
ObjectDBX Classes
 90
        0
 91
        4
280
     0
281
     0
  0
ENDSEC
  0
SECTION
  2
TABLES
  0
TABLE
  2
VPORT
  5
8
330
0
100
AcDbSymbolTable
 70
     1
  0
VPORT
  5
29
330
8
100
AcDbSymbolTableRecord
100
AcDbViewportTableRecord
  2
*Active
 70
     0
 10
0.0
 20
0.0
 11
1.0
 21
1.0
 12
80.25
 22
106.4409457059851
 13
0.0
 23
0.0
 14
0.5
 24
0.5
 15
0.5
 25
0.5
 16
0.0
 26
0.0
 36
1.0
 17
0.0
 27
0.0
 37
0.0
 40
113.3818914119703
 41
0.8863849310366128
 42
50.0
 43
0.0
 44
0.0
 50
0.0
 51
0.0
 71
     0
 72
  1000
 73
     1
 74
     3
 75
     0
 76
     0
 77
     0
 78
     0
281
     0
 65
     1
110
0.0
120
0.0
130
0.0
111
1.0
121
0.0
131
0.0
112
0.0
122
1.0
132
0.0
 79
     0
146
0.0
  0
ENDTAB
  0
TABLE
  2
LTYPE
  5
5
330
0
100
AcDbSymbolTable
 70
     1
  0
LTYPE
  5
14
330
5
100
AcDbSymbolTableRecord
100
AcDbLinetypeTableRecord
  2
ByBlock
 70
     0
  3

 72
    65
 73
     0
 40
0.0
  0
LTYPE
  5
15
330
5
100
AcDbSymbolTableRecord
100
AcDbLinetypeTableRecord
  2
ByLayer
 70
     0
  3

 72
    65
 73
     0
 40
0.0
  0
LTYPE
  5
16
330
5
100
AcDbSymbolTableRecord
100
AcDbLinetypeTableRecord
  2
Continuous
 70
     0
  3
Solid line
 72
    65
 73
     0
 40
0.0
  0
ENDTAB
  0
TABLE
  2
LAYER
  5
2
330
0
100
AcDbSymbolTable
 70
     1
  0
LAYER
  5
10
330
2
100
AcDbSymbolTableRecord
100
AcDbLayerTableRecord
  2
0
 70
     0
 62
     7
  6
Continuous
370
    -3
390
F
  0
ENDTAB
  0
TABLE
  2
STYLE
  5
3
330
0
100
AcDbSymbolTable
 70
     1
  0
STYLE
  5
11
330
3
100
AcDbSymbolTableRecord
100
AcDbTextStyleTableRecord
  2
Standard
 70
     0
 40
0.0
 41
1.0
 50
0.0
 71
     0
 42
0.2
  3
txt
  4

  0
ENDTAB
  0
TABLE
  2
VIEW
  5
6
330
0
100
AcDbSymbolTable
 70
     0
  0
ENDTAB
  0
TABLE
  2
UCS
  5
7
330
0
100
AcDbSymbolTable
 70
     0
  0
ENDTAB
  0
TABLE
  2
APPID
  5
9
330
0
100
AcDbSymbolTable
 70
     1
  0
APPID
  5
12
330
9
100
AcDbSymbolTableRecord
100
AcDbRegAppTableRecord
  2
ACAD
 70
     0
  0
ENDTAB
  0
TABLE
  2
DIMSTYLE
  5
A
330
0
100
AcDbSymbolTable
 70
     1
100
AcDbDimStyleTable
  0
DIMSTYLE
105
27
330
A
100
AcDbSymbolTableRecord
100
AcDbDimStyleTableRecord
  2
Standard
 70
     0
340
11
  0
ENDTAB
  0
TABLE
  2
BLOCK_RECORD
  5
1
330
0
100
AcDbSymbolTable
 70
     1
  0
BLOCK_RECORD
  5
1F
330
1
100
AcDbSymbolTableRecord
100
AcDbBlockTableRecord
  2
*Model_Space
340
22
  0
BLOCK_RECORD
  5
1B
330
1
100
AcDbSymbolTableRecord
100
AcDbBlockTableRecord
  2
*Paper_Space
340
1E
  0
ENDTAB
  0
ENDSEC
  0
SECTION
  2
BLOCKS
  0
BLOCK
  5
20
330
1F
100
AcDbEntity
  8
0
100
AcDbBlockBegin
  2
*Model_Space
 70
     0
 10
0.0
 20
0.0
 30
0.0
  3
*Model_Space
  1

  0
ENDBLK
  5
21
330
1F
100
AcDbEntity
  8
0
100
AcDbBlockEnd
  0
BLOCK
  5
1C
330
1B
100
AcDbEntity
 67
     1
  8
0
100
AcDbBlockBegin
  2
*Paper_Space
 70
     0
 10
0.0
 20
0.0
 30
0.0
  3
*Paper_Space
  1

  0
ENDBLK
  5
1D
330
1B
100
AcDbEntity
 67
     1
  8
0
100
AcDbBlockEnd
  0
ENDSEC
  0
SECTION
  2
ENTITIES
  0
LWPOLYLINE
  5
20000
100
AcDbEntity
  8
0
100
AcDbPolyline
 70
0
 90
2
 10
139.887380238713
 20
35.6368814079002
 10
139.887379802015
 20
35.636880756083
  0
LWPOLYLINE
  5
20001
100
AcDbEntity
  8
0
100
AcDbPolyline
 70
0
 90
58
 10
139.887379802015
 20
35.636880756083
 10
139.887289325323
 20
35.6367457103441
 10
139.887124968563
 20
35.6366284878128
 10
139.886678281509
 20
35.6363453172579
 10
139.886207302302
 20
35.6360583101452
 10
139.885681670815
 20
35.6359537058206
 10
139.885086277869
 20
35.6356072338281
 10
139.884108513622
 20
35.6354093184786
 10
139.883371266892
 20
35.6356756268353
 10
139.883128636462
 20
35.6362236160702
 10
139.883255763097
 20
35.6369174453519
 10
139.882767270625
 20
35.6372583815891
 10
139.882466583306
 20
35.6375820128927
 10
139.881927696883
 20
35.6378246602248
 10
139.881611023982
 20
35.6376066289777
 10
139.880967868401
 20
35.6373734231455
 10
139.879617878914
 20
35.6373068608734
 10
139.878256075159
 20
35.6367414035289
 10
139.87724703938
 20
35.6367650223108
 10
139.875868185214
 20
35.6370886297503
 10
139.874578923468
 20
35.6369405288175
 10
139.873467157826
 20
35.637158241281
 10
139.873363829879
 20
35.6375917754786
 10
139.873520007943
 20
35.6378532539091
 10
139.873812549936
 20
35.6385906052634
 10
139.873805373229
 20
35.6390359907718
 10
139.873859263761
 20
35.639357098999
 10
139.874318964037
 20
35.6397994357817
 10
139.874465259052
 20
35.6400582940792
 10
139.874236089339
 20
35.6401870446532
 10
139.874215999075
 20
35.6404250187562
 10
139.874700759687
 20
35.6408076341262
 10
139.875116231512
 20
35.6407347004804
 10
139.875512216065
 20
35.6410657869284
 10
139.876060778524
 20
35.6409569371146
 10
139.876724159011
 20
35.6409733272585
 10
139.877108254502
 20
35.6408843641077
 10
139.878023917914
 20
35.6413147490668
 10
139.87866706568
 20
35.6422920482074
 10
139.878845199223
 20
35.6426178009775
 10
139.879355771062
 20
35.642936251088
 10
139.879940681702
 20
35.6433063359621
 10
139.880337392022
 20
35.6436449055712
 10
139.881295821127
 20
35.6441817418802
 10
139.882441969797
 20
35.6448714873261
 10
139.883621803484
 20
35.6457586258914
 10
139.883914604735
 20
35.6462276509515
 10
139.8842054691
 20
35.6455430175669
 10
139.88466470015
 20
35.6445541961266
 10
139.884902866924
 20
35.6439926960486
 10
139.885910913829
 20
35.6415676381115
 10
139.887077494891
 20
35.639897874484
 10
139.887997988874
 20
35.6390286621271
 10
139.888198250026
 20
35.6381865565622
 10
139.887758654796
 20
35.6377793220557
 10
139.887257031909
 20
35.6377081605682
 10
139.887178028525
 20
35.6374647792997
 10
139.887379802015
 20
35.636880756083
  0
LWPOLYLINE
  5
20002
100
AcDbEntity
  8
0
100
AcDbPolyline
 70
0
 90
2
 10
139.887379802015
 20
35.636880756083
 10
139.887380069409
 20
35.6368799821232
  0
LWPOLYLINE
  5
20003
100
AcDbEntity
  8
0
100
AcDbPolyline
 70
0
 90
2744
 10
139.797376391507
 20
35.3125422978101
 10
139.797485312105
 20
35.3126624151622
 10
139.798644435838
 20
35.3130889830337
 10
139.799349660053
 20
35.3132002688895
 10
139.799816713897
 20
35.3132346704994
 10
139.800313627636
 20
35.3132951250581
 10
139.800662274585
 20
35.3133734564732
 10
139.801135238377
 20
35.313533584378
 10
139.80162617201
 20
35.3135873686899
 10
139.802128575801
 20
35.3135993473465
 10
139.802710669381
 20
35.3136127162249
 10
139.803255945907
 20
35.3136075035424
 10
139.803833139646
 20
35.3135531398466
 10
139.804293739381
 20
35.3134900593532
 10
139.804991808519
 20
35.3135288618013
 10
139.805935152734
 20
35.3135348958564
 10
139.806524620317
 20
35.3135880215281
 10
139.807148501005
 20
35.3136594508996
 10
139.80795692009
 20
35.3138015470749
 10
139.809143236494
 20
35.3138050947766
 10
139.809223964749
 20
35.3140261430261
 10
139.810735285664
 20
35.314168971935
 10
139.81279846367
 20
35.3144905795456
 10
139.814869588447
 20
35.3149072023145
 10
139.817982976705
 20
35.315297078632
 10
139.822553971359
 20
35.3165725976213
 10
139.825265866647
 20
35.3174829381031
 10
139.828246351211
 20
35.3186172642401
 10
139.830390976378
 20
35.3197679337125
 10
139.832129493818
 20
35.3205825463316
 10
139.834494694559
 20
35.3215151477891
 10
139.836867831756
 20
35.3228211569434
 10
139.837623912919
 20
35.3228669762202
 10
139.838674457557
 20
35.3236177906713
 10
139.839603324384
 20
35.3239329498341
 10
139.841009033628
 20
35.325099041147
 10
139.843135278673
 20
35.3266469216134
 10
139.844182751423
 20
35.3270528977454
 10
139.845894134173
 20
35.3283841676627
 10
139.847209660185
 20
35.3296047490443
 10
139.84882721357
 20
35.3309938922193
 10
139.849799491804
 20
35.3314725810439
 10
139.8502363793
 20
35.3320512432152
 10
139.850542704183
 20
35.3323145756811
 10
139.850482104448
 20
35.3325625827468
 10
139.849982636124
 20
35.3325568061554
 10
139.849550723073
 20
35.3324691204913
 10
139.849593138881
 20
35.3328251105046
 10
139.851782246875
 20
35.3347982566882
 10
139.850873454157
 20
35.3353687846923
 10
139.851206990916
 20
35.3359196167198
 10
139.851655169735
 20
35.3364796903109
 10
139.851746146095
 20
35.33675679882
 10
139.851799537822
 20
35.3371097505439
 10
139.851724105744
 20
35.3374351923971
 10
139.851456826605
 20
35.3376383885217
 10
139.851558991756
 20
35.3382528166712
 10
139.851859556546
 20
35.3388680289803
 10
139.851542112988
 20
35.3391426563383
 10
139.852436543685
 20
35.3396569627856
 10
139.85272355223
 20
35.3400706340839
 10
139.853740174292
 20
35.3409774205192
 10
139.855372568258
 20
35.3421689034701
 10
139.855530607744
 20
35.3424448678149
 10
139.855589968302
 20
35.3423877001034
 10
139.855828355458
 20
35.342593233348
 10
139.856113727464
 20
35.3427323864361
 10
139.856894159599
 20
35.3425858735198
 10
139.857750928701
 20
35.3435511637655
 10
139.857413473394
 20
35.3438801853148
 10
139.858653669513
 20
35.344588204024
 10
139.85942702024
 20
35.3437825700996
 10
139.859334391585
 20
35.3436853145888
 10
139.859799705487
 20
35.3432303716808
 10
139.859959583884
 20
35.3433172196994
 10
139.8602413302
 20
35.3429556725438
 10
139.860457705978
 20
35.3428763693432
 10
139.860681032683
 20
35.3425900777093
 10
139.860194848432
 20
35.3422836006999
 10
139.86060039436
 20
35.3420604367248
 10
139.860849388539
 20
35.3420087922957
 10
139.861069746326
 20
35.3420602847532
 10
139.861534220201
 20
35.3420562810388
 10
139.861847600144
 20
35.3419940949515
 10
139.862074132267
 20
35.3418016669694
 10
139.8622196407
 20
35.3415263641863
 10
139.862267346872
 20
35.3412581309149
 10
139.862623347282
 20
35.341112647037
 10
139.863070115659
 20
35.3411375544519
 10
139.863284030411
 20
35.3406707521197
 10
139.863711608042
 20
35.3402192703868
 10
139.86399072063
 20
35.3396547785417
 10
139.864424939013
 20
35.3390508224537
 10
139.86473403932
 20
35.3385438121496
 10
139.865350332922
 20
35.3371837660001
 10
139.865309079812
 20
35.3365030970934
 10
139.865131913911
 20
35.3360396506045
 10
139.864680535568
 20
35.3354406607848
 10
139.86398677996
 20
35.3346624926888
 10
139.863877032974
 20
35.3342914981083
 10
139.863928179775
 20
35.3338875779996
 10
139.864211480584
 20
35.3336185886199
 10
139.864191983396
 20
35.3333539743302
 10
139.8651928035
 20
35.333498713696
 10
139.864820856792
 20
35.3340313593897
 10
139.864776796822
 20
35.3344495229146
 10
139.86493559392
 20
35.3346890411352
 10
139.866284727549
 20
35.3365871291477
 10
139.865765407617
 20
35.338012789202
 10
139.864892203208
 20
35.3396378105807
 10
139.863489209787
 20
35.3420920729912
 10
139.863234980007
 20
35.3426864529388
 10
139.863305627702
 20
35.343526549611
 10
139.863103236017
 20
35.3439963383275
 10
139.862695053687
 20
35.344866490386
 10
139.862611170194
 20
35.3451954995746
 10
139.862400103524
 20
35.3458855760754
 10
139.862416204282
 20
35.346370050007
 10
139.862819832604
 20
35.3464067237403
 10
139.863597029627
 20
35.3467369883354
 10
139.863848509644
 20
35.3466675582707
 10
139.864303703221
 20
35.3461125495576
 10
139.864843328777
 20
35.3456490670779
 10
139.865639743838
 20
35.3452745419885
 10
139.866483061776
 20
35.3450109048821
 10
139.867204130565
 20
35.3448304125402
 10
139.867710502097
 20
35.3446256203515
 10
139.868443030415
 20
35.3444996264632
 10
139.870419201779
 20
35.3443899057879
 10
139.87266105553
 20
35.3443047571199
 10
139.874497294151
 20
35.344321888445
 10
139.8787195805
 20
35.3445939835488
 10
139.881070332591
 20
35.3446582670863
 10
139.883271941728
 20
35.3450437068263
 10
139.888257368215
 20
35.3462107892499
 10
139.892320612048
 20
35.3472691336697
 10
139.895593864618
 20
35.3485208732846
 10
139.896897940443
 20
35.3494989846762
 10
139.898679827988
 20
35.3499617296144
 10
139.901465636312
 20
35.3507961025359
 10
139.906038388764
 20
35.3534792200761
 10
139.909286137005
 20
35.3559361855459
 10
139.909552940908
 20
35.3559833814754
 10
139.909923436745
 20
35.3561652603396
 10
139.91170685044
 20
35.3575473780754
 10
139.912774398367
 20
35.358714714214
 10
139.913652636001
 20
35.3598183402045
 10
139.913919034526
 20
35.3607525498999
 10
139.914178549092
 20
35.3610773916827
 10
139.914654914099
 20
35.3612831465374
 10
139.914955119101
 20
35.3619771983073
 10
139.915220767949
 20
35.3622168797206
 10
139.91577743973
 20
35.3629829474622
 10
139.916418067676
 20
35.3650379381305
 10
139.916177417618
 20
35.3653881940896
 10
139.916068696951
 20
35.3656512077015
 10
139.916360049055
 20
35.3658949566498
 10
139.91671129736
 20
35.3659983663472
 10
139.916905477425
 20
35.3662035951079
 10
139.91698393948
 20
35.3663491199459
 10
139.916992811717
 20
35.3665251530585
 10
139.916962100199
 20
35.3666120213459
 10
139.916752586817
 20
35.3668920188483
 10
139.916361617519
 20
35.3675284785739
 10
139.916366359816
 20
35.3680548302469
 10
139.916464445936
 20
35.3685584927928
 10
139.917034414946
 20
35.369173118542
 10
139.917499677779
 20
35.3694508560613
 10
139.917935243715
 20
35.3695453666341
 10
139.918255273243
 20
35.3699884409119
 10
139.917765020082
 20
35.3709328760371
 10
139.917414064899
 20
35.3717061669628
 10
139.917669067832
 20
35.3735373965313
 10
139.918349926846
 20
35.375991160223
 10
139.918720102793
 20
35.3761787757123
 10
139.919740630257
 20
35.3764562867616
 10
139.921134418485
 20
35.3766214005577
 10
139.921099337478
 20
35.3769128723798
 10
139.920105028016
 20
35.3769217037765
 10
139.91939971434
 20
35.3772923042422
 10
139.918870065217
 20
35.3778834015731
 10
139.918549743719
 20
35.3786109566588
 10
139.918578766132
 20
35.379271160048
 10
139.919095004948
 20
35.3798907046647
 10
139.919067674061
 20
35.3805034337371
 10
139.919429843071
 20
35.3811011011143
 10
139.919561560298
 20
35.3816507144159
 10
139.919392481663
 20
35.3823000422607
 10
139.919964287132
 20
35.3822357771209
 10
139.919832296078
 20
35.3827096877534
 10
139.919738646626
 20
35.3830499217425
 10
139.920307814113
 20
35.3839771131809
 10
139.920205635193
 20
35.3843382302183
 10
139.920148760025
 20
35.3850303337642
 10
139.919897089996
 20
35.385323880554
 10
139.920108194751
 20
35.3855239651879
 10
139.920215398643
 20
35.3860269595091
 10
139.920019147874
 20
35.387931760977
 10
139.919694581841
 20
35.3885661628981
 10
139.919543165167
 20
35.3897653179584
 10
139.919636217532
 20
35.3909156651939
 10
139.918994940402
 20
35.3923194326561
 10
139.918977007342
 20
35.3929834112404
 10
139.919790294232
 20
35.3934285830885
 10
139.918721408484
 20
35.3951351203482
 10
139.917390009743
 20
35.3972607746223
 10
139.912002185143
 20
35.3960619993349
 10
139.912206322134
 20
35.3983268682273
 10
139.912462269812
 20
35.3987305761988
 10
139.912764651136
 20
35.3992982596392
 10
139.912814473482
 20
35.3996312636975
 10
139.912299227244
 20
35.3999241238362
 10
139.910301969495
 20
35.3992859688832
 10
139.909618015716
 20
35.400477851459
 10
139.906016640772
 20
35.3994803129037
 10
139.905170001101
 20
35.4007968381131
 10
139.903879996747
 20
35.400495493463
 10
139.903655028435
 20
35.4016497207483
 10
139.902883886724
 20
35.4016364264576
 10
139.902689395751
 20
35.404203002652
 10
139.903131325777
 20
35.4051964239681
 10
139.903323642144
 20
35.4072427404416
 10
139.903137115338
 20
35.409046337286
 10
139.903994292346
 20
35.4099207401429
 10
139.905308378319
 20
35.4108969045994
 10
139.90529541265
 20
35.4130098641315
 10
139.904295704659
 20
35.4149116065429
 10
139.903603489798
 20
35.4163436840854
 10
139.901874890746
 20
35.4158485160185
 10
139.901301689743
 20
35.4163982643108
 10
139.902354443122
 20
35.4176168495824
 10
139.90196333867
 20
35.4187562619606
 10
139.901438176142
 20
35.4189943616024
 10
139.901999468718
 20
35.4258526708404
 10
139.903150803823
 20
35.4268366950265
 10
139.906565643323
 20
35.4265775505792
 10
139.906333100521
 20
35.4284944275348
 10
139.905855696103
 20
35.42953564073
 10
139.906522985761
 20
35.4302798500877
 10
139.907387742955
 20
35.4307714318087
 10
139.907462484603
 20
35.4315345194036
 10
139.90889796191
 20
35.432503893669
 10
139.910697230519
 20
35.4333807441939
 10
139.912426396968
 20
35.4346725037496
 10
139.913227481458
 20
35.4353498337156
 10
139.91407515237
 20
35.4359274726985
 10
139.913932814842
 20
35.4364523831778
 10
139.91520579487
 20
35.4367374212583
 10
139.916046022545
 20
35.4362953728082
 10
139.917313363168
 20
35.4373054793613
 10
139.920057078868
 20
35.4379937478338
 10
139.922552004769
 20
35.4388401200762
 10
139.925148666365
 20
35.4391136799807
 10
139.928348867692
 20
35.4405371221812
 10
139.935363361586
 20
35.4411978114175
 10
139.93976138202
 20
35.4416120572356
 10
139.948507605631
 20
35.4421533721954
 10
139.955532413321
 20
35.4413081737941
 10
139.965039255383
 20
35.4392378354476
 10
139.969178912945
 20
35.4403151950592
 10
139.970669741429
 20
35.4398557031377
 10
139.975024227687
 20
35.4408629913942
 10
139.982596904002
 20
35.4438072717394
 10
139.990985160644
 20
35.4482705071915
 10
139.993066400926
 20
35.4500585379304
 10
139.994637765489
 20
35.4503075802201
 10
139.99863592319
 20
35.451729536863
 10
140.003117880413
 20
35.4540844016493
 10
140.025303600972
 20
35.4666786061188
 10
140.029359554418
 20
35.4699134691333
 10
140.031953362058
 20
35.4728499652619
 10
140.032604198851
 20
35.4756620726724
 10
140.040940319258
 20
35.4802148048513
 10
140.045881904063
 20
35.4929916131495
 10
140.055076020985
 20
35.5064013042528
 10
140.060248025395
 20
35.513511972586
 10
140.067982997584
 20
35.5287167698661
 10
140.074587514206
 20
35.5313787121444
 10
140.076381234329
 20
35.5368380829383
 10
140.084893595905
 20
35.5360578179367
 10
140.092079646517
 20
35.5318647276173
 10
140.099930500244
 20
35.5304524770316
 10
140.106430940298
 20
35.5316681376367
 10
140.112472311613
 20
35.536289902313
 10
140.115004461793
 20
35.5364088606275
 10
140.118347229476
 20
35.5406879585786
 10
140.119174599641
 20
35.5412370873691
 10
140.119631946499
 20
35.5418017297777
 10
140.11971822731
 20
35.5422248970904
 10
140.118900242358
 20
35.5425313376681
 10
140.118280842448
 20
35.54285619266
 10
140.119249052016
 20
35.5433593059085
 10
140.120393679822
 20
35.5437220156557
 10
140.120608682182
 20
35.543975177151
 10
140.119830662063
 20
35.5442544726887
 10
140.120071794965
 20
35.5446991504456
 10
140.120190776842
 20
35.5452873152517
 10
140.120232233328
 20
35.5457056893845
 10
140.119829376166
 20
35.5459418792316
 10
140.119382841047
 20
35.5458875116901
 10
140.118925456347
 20
35.5460556609327
 10
140.118911855598
 20
35.5469280248454
 10
140.119098376997
 20
35.5473006817514
 10
140.119199552514
 20
35.5479601059358
 10
140.119584543028
 20
35.5481696116115
 10
140.119393929368
 20
35.5484486413003
 10
140.117710846918
 20
35.5484309093478
 10
140.117174368188
 20
35.5489202103708
 10
140.116718373345
 20
35.549765216322
 10
140.116202741309
 20
35.5502540246801
 10
140.115481147276
 20
35.5505523780137
 10
140.11566256918
 20
35.5511312306286
 10
140.116052653684
 20
35.55245634352
 10
140.117112083204
 20
35.5535419738877
 10
140.118455674279
 20
35.5541480292699
 10
140.121120420652
 20
35.5553384913971
 10
140.122747802869
 20
35.5562766199081
 10
140.123911657189
 20
35.5574516675608
 10
140.124632285768
 20
35.5579476611243
 10
140.125060385879
 20
35.5587106356039
 10
140.125239459315
 20
35.5596565740614
 10
140.125549006654
 20
35.5600250272212
 10
140.126165006226
 20
35.5599873696804
 10
140.127284710474
 20
35.5597711591611
 10
140.127707370652
 20
35.5605382242185
 10
140.127826041537
 20
35.5613508047096
 10
140.127814472522
 20
35.5625051742066
 10
140.12804135091
 20
35.5626712926903
 10
140.128375035205
 20
35.5628959363674
 10
140.128585545823
 20
35.5633726619254
 10
140.12867919863
 20
35.5637362682908
 10
140.128702485462
 20
35.5640434582363
 10
140.128355444745
 20
35.5647227261533
 10
140.128643963441
 20
35.5667823827617
 10
140.128457155059
 20
35.5679515090947
 10
140.128600486303
 20
35.5684365412289
 10
140.128451614991
 20
35.5692130410354
 10
140.129102164079
 20
35.5701062551295
 10
140.12893144775
 20
35.5708438435431
 10
140.127931583901
 20
35.574340318403
 10
140.127878675187
 20
35.5772912318565
 10
140.126854372712
 20
35.5795284866163
 10
140.126135572876
 20
35.5821183894496
 10
140.123573713192
 20
35.5881512571167
 10
140.121786722291
 20
35.5913839471492
 10
140.121714593046
 20
35.5921593080302
 10
140.120589381021
 20
35.5938907362008
 10
140.119869998574
 20
35.5940919470446
 10
140.118792976455
 20
35.5979653956326
 10
140.117129343703
 20
35.5993036899529
 10
140.084449759261
 20
35.6323068184509
 10
140.076807112044
 20
35.6389506975834
 10
140.075164909725
 20
35.6390537929044
 10
140.073572433771
 20
35.6405960420488
 10
140.070784867156
 20
35.6420848822858
 10
140.068981605613
 20
35.6446141602933
 10
140.067308461322
 20
35.6452415996365
 10
140.066732523987
 20
35.6465668553422
 10
140.062159678693
 20
35.6500986135934
 10
140.059575876377
 20
35.6526299551647
 10
140.058248150029
 20
35.6547082339413
 10
140.055713420499
 20
35.6561890409474
 10
140.052834777974
 20
35.6573987522932
 10
140.04854254447
 20
35.660332745403
 10
140.045897811494
 20
35.6614170060581
 10
140.044990595355
 20
35.6623227119541
 10
140.043772526654
 20
35.6623267715384
 10
140.043416444227
 20
35.6634147664288
 10
140.041170942751
 20
35.6645434596162
 10
140.031630789311
 20
35.6707754708196
 10
140.030416900419
 20
35.6713106353783
 10
140.027503145908
 20
35.6724405389948
 10
140.026363673662
 20
35.6734676850602
 10
140.022508664006
 20
35.6759174350192
 10
140.022301102635
 20
35.6765338340684
 10
140.018101471969
 20
35.6788328506011
 10
140.013738219854
 20
35.6809277405598
 10
140.010400879611
 20
35.6828755612568
 10
140.008495911456
 20
35.6827548706375
 10
140.006715421788
 20
35.6843063938415
 10
139.999453249972
 20
35.6873638705568
 10
139.997384693869
 20
35.6883936037164
 10
139.995240604202
 20
35.6896385164768
 10
139.988812860336
 20
35.6943436015132
 10
139.986952282012
 20
35.6941390855031
 10
139.985161771362
 20
35.6948805603427
 10
139.982886876709
 20
35.6953896381817
 10
139.981075136376
 20
35.6963430866265
 10
139.980777182585
 20
35.6968604409917
 10
139.98005595479
 20
35.6955073052885
 10
139.978928770364
 20
35.6931323825086
 10
139.977531289247
 20
35.6937612463261
 10
139.97739798967
 20
35.694681702495
 10
139.972221452781
 20
35.6965859864383
 10
139.971747184986
 20
35.6938872553417
 10
139.962079654258
 20
35.6950513660488
 10
139.962288048367
 20
35.6926352957117
 10
139.956272186311
 20
35.692490372391
 10
139.956497004106
 20
35.6914137191485
 10
139.950883023863
 20
35.6879491538884
 10
139.948909829633
 20
35.689758424431
 10
139.945609034134
 20
35.6877543605744
 10
139.949646553017
 20
35.6842758378031
 10
139.942695404737
 20
35.6806918450521
 10
139.939358584072
 20
35.6835503668451
 10
139.933919888675
 20
35.6787091446849
 10
139.933184203073
 20
35.6793276044776
 10
139.930654237574
 20
35.6772383777085
 10
139.929132101894
 20
35.6791595712484
 10
139.926710520293
 20
35.6773117323236
 10
139.924303523947
 20
35.6764128516443
 10
139.92168291005
 20
35.6759743830613
 10
139.922538122937
 20
35.6746436672339
 10
139.922010647989
 20
35.6722975363707
 10
139.920106372112
 20
35.6706792273241
 10
139.915254357197
 20
35.6679603426617
 10
139.911518530411
 20
35.666164682198
 10
139.907369507313
 20
35.6662457396402
 10
139.907279247756
 20
35.6623579479365
 10
139.903828627298
 20
35.6569682960356
 10
139.901951496303
 20
35.653524470776
 10
139.90110227942
 20
35.6529411491116
 10
139.900866406704
 20
35.6525336842351
 10
139.899705738889
 20
35.6519844847388
 10
139.896152109194
 20
35.6506170307565
 10
139.895065782172
 20
35.6491658760287
 10
139.893554086373
 20
35.6467258282516
 10
139.893304193185
 20
35.6456627896273
 10
139.892207934123
 20
35.6437414293705
 10
139.891835003173
 20
35.6428895687496
 10
139.891608256083
 20
35.6408616739318
 10
139.89179798883
 20
35.6402039808562
 10
139.891793100441
 20
35.6392590907765
 10
139.891082077826
 20
35.6383162617094
 10
139.891385360986
 20
35.6371934678144
 10
139.891091181868
 20
35.6361785774793
 10
139.890884773458
 20
35.6353771972807
 10
139.890082685657
 20
35.6341377508694
 10
139.88907910159
 20
35.6339663451569
 10
139.888103810865
 20
35.6345202897074
 10
139.887180203071
 20
35.6355814202761
 10
139.887169909486
 20
35.6359524905418
 10
139.888020985154
 20
35.6365622148278
 10
139.888083757149
 20
35.6375540253953
 10
139.888980898221
 20
35.6379473071951
 10
139.888945705932
 20
35.6385546862138
 10
139.888586331608
 20
35.6390647684861
 10
139.888566324002
 20
35.6397296437431
 10
139.888115640797
 20
35.6400155816678
 10
139.887782802324
 20
35.6402805090715
 10
139.887348728075
 20
35.6406631776569
 10
139.886756094174
 20
35.6415523201877
 10
139.88623554838
 20
35.6427337092402
 10
139.886096475473
 20
35.6430965075811
 10
139.885998537823
 20
35.6433227062435
 10
139.885918365886
 20
35.6434979980329
 10
139.885838006938
 20
35.6436955406121
 10
139.88578024797
 20
35.643908229844
 10
139.885767625491
 20
35.6440874291288
 10
139.885576490143
 20
35.6442790299433
 10
139.88531090805
 20
35.6445773630334
 10
139.885294396055
 20
35.6448248122135
 10
139.885264720726
 20
35.644993841079
 10
139.885196758561
 20
35.645227790934
 10
139.885051739508
 20
35.6458011459686
 10
139.884889108532
 20
35.6465088127655
 10
139.884732729659
 20
35.6474058664025
 10
139.884694636735
 20
35.6478859094438
 10
139.886301180662
 20
35.6510531331657
 10
139.886467062209
 20
35.6516335088946
 10
139.887782526404
 20
35.6552526352002
 10
139.887932777557
 20
35.6571137778487
 10
139.888103790723
 20
35.6584956653802
 10
139.887744109261
 20
35.6606956958498
 10
139.886168654146
 20
35.6754929948328
 10
139.889797472012
 20
35.6807658073715
 10
139.898569367348
 20
35.6819012877229
 10
139.906598701919
 20
35.6836020706475
 10
139.915742281505
 20
35.6920912204912
 10
139.921962974324
 20
35.7044520982735
 10
139.898341485141
 20
35.7272934643618
 10
139.902371272197
 20
35.7372358918354
 10
139.90082579946
 20
35.7436425313487
 10
139.892566142902
 20
35.7515291700228
 10
139.889758155096
 20
35.7503868746129
 10
139.898994856259
 20
35.7432041795947
 10
139.89950596546
 20
35.7360650390505
 10
139.894868741107
 20
35.7269802355343
 10
139.898690718467
 20
35.7188448685412
 10
139.910580257251
 20
35.7086452583783
 10
139.917390829801
 20
35.7030819926629
 10
139.917942570623
 20
35.6999047331428
 10
139.911512833791
 20
35.690733954175
 10
139.905024162081
 20
35.6846722432893
 10
139.89701458655
 20
35.6841561389807
 10
139.890402862047
 20
35.6836889911402
 10
139.884882844993
 20
35.6796382148445
 10
139.883881091327
 20
35.6666087458766
 10
139.886267116214
 20
35.6624332729642
 10
139.88637103744
 20
35.661258820862
 10
139.886476246656
 20
35.6599622083801
 10
139.886457710899
 20
35.6595085360063
 10
139.886292209987
 20
35.6591110397457
 10
139.88589688798
 20
35.6575509929504
 10
139.885457755744
 20
35.6536898544094
 10
139.885033296696
 20
35.652474251391
 10
139.884251422204
 20
35.6511288362023
 10
139.883702400111
 20
35.6503823824875
 10
139.88372232373
 20
35.6502127987308
 10
139.883250434736
 20
35.6492654905735
 10
139.883460439878
 20
35.6487965349017
 10
139.883027760291
 20
35.6472401152197
 10
139.882815870151
 20
35.6468341457895
 10
139.882559387472
 20
35.6463988473891
 10
139.881937773709
 20
35.6459678959425
 10
139.882065603833
 20
35.645854794469
 10
139.88200466602
 20
35.6457761608069
 10
139.881013347263
 20
35.6450002087926
 10
139.879470464567
 20
35.6442654678075
 10
139.878059971733
 20
35.6433203151567
 10
139.877810756945
 20
35.643066375893
 10
139.877136975573
 20
35.6427653545987
 10
139.876160506078
 20
35.6425906991209
 10
139.875519294568
 20
35.6424244294735
 10
139.87438882542
 20
35.6419495542754
 10
139.873557402169
 20
35.6416453161579
 10
139.872717200752
 20
35.6415004769998
 10
139.872141370819
 20
35.6408428926562
 10
139.872163953277
 20
35.6405360386199
 10
139.871866441143
 20
35.6399930750188
 10
139.871238129191
 20
35.6394970519747
 10
139.870151569752
 20
35.6391131073404
 10
139.868975134755
 20
35.6384861966052
 10
139.868287234424
 20
35.6385552885298
 10
139.867884300978
 20
35.638457719701
 10
139.867387609663
 20
35.6386768954041
 10
139.867536108023
 20
35.6392559539056
 10
139.867389311286
 20
35.6395996333025
 10
139.867064025868
 20
35.6396841919961
 10
139.866673272601
 20
35.6396545608065
 10
139.866486176389
 20
35.6394736357728
 10
139.866159585736
 20
35.6393759707577
 10
139.865803248244
 20
35.6394674847072
 10
139.865573643013
 20
35.6393901361413
 10
139.865623565206
 20
35.6391260238416
 10
139.865248654237
 20
35.6388081539235
 10
139.864752466551
 20
35.6388742582626
 10
139.864400148742
 20
35.6389211238645
 10
139.86413172335
 20
35.6390955714626
 10
139.864077550809
 20
35.6394131591952
 10
139.863844855234
 20
35.6396594154337
 10
139.863498065922
 20
35.6399132530164
 10
139.863378924246
 20
35.6402200580723
 10
139.863546731194
 20
35.6406717999971
 10
139.864009853928
 20
35.6414042976431
 10
139.864765835409
 20
35.6418480603862
 10
139.864987798582
 20
35.6422790525615
 10
139.864719343308
 20
35.6423233132022
 10
139.864301615536
 20
35.6421669234809
 10
139.86375920948
 20
35.6421473291874
 10
139.863531512902
 20
35.6424826636048
 10
139.863660671014
 20
35.6428631671565
 10
139.863995772071
 20
35.6432546445696
 10
139.864562794292
 20
35.6434521548725
 10
139.864893264821
 20
35.6436190022699
 10
139.864857589776
 20
35.643948547855
 10
139.864533462774
 20
35.6444264340303
 10
139.864597122873
 20
35.6446882685427
 10
139.865067236354
 20
35.6449234034237
 10
139.865456837359
 20
35.6452660118839
 10
139.8655070675
 20
35.6454847425962
 10
139.865373717152
 20
35.6458857851738
 10
139.865436318469
 20
35.6462026799444
 10
139.865675301841
 20
35.6464231060337
 10
139.865711678754
 20
35.6466134312002
 10
139.865674755127
 20
35.6469337414479
 10
139.865953160825
 20
35.6470460001345
 10
139.866141743955
 20
35.6472586718745
 10
139.865947346423
 20
35.6474984200769
 10
139.865998806805
 20
35.6477757035536
 10
139.866799588459
 20
35.6479252612414
 10
139.867797993191
 20
35.6479433826112
 10
139.868605958799
 20
35.6478225412673
 10
139.869129183067
 20
35.6476669738793
 10
139.869811254941
 20
35.6476360324825
 10
139.869409937864
 20
35.647750972653
 10
139.868857393649
 20
35.6477828172241
 10
139.868414723736
 20
35.647953513441
 10
139.867765534
 20
35.6481002259388
 10
139.867033721336
 20
35.6481057546813
 10
139.866460023671
 20
35.6480379497628
 10
139.866006370403
 20
35.6480572638687
 10
139.865571791382
 20
35.6481493456038
 10
139.865179331582
 20
35.6482775233916
 10
139.8648141817
 20
35.648617739433
 10
139.864190464354
 20
35.6492541189393
 10
139.86382018088
 20
35.6499643294824
 10
139.863653460457
 20
35.650816829704
 10
139.864697879283
 20
35.6516918139964
 10
139.866517153063
 20
35.653281000472
 10
139.868640237611
 20
35.654390046155
 10
139.868610217399
 20
35.6546422248118
 10
139.867385801168
 20
35.6541213198042
 10
139.866651035904
 20
35.6537597889857
 10
139.864844803657
 20
35.6523201772498
 10
139.863922166388
 20
35.6516080871049
 10
139.863494296295
 20
35.6514897248474
 10
139.863192492239
 20
35.6515985468447
 10
139.862945258256
 20
35.6518617118831
 10
139.862969885045
 20
35.6523807604647
 10
139.862789352814
 20
35.6528986280141
 10
139.86205405307
 20
35.6533950210179
 10
139.861166838704
 20
35.6534658609145
 10
139.860112238628
 20
35.6533668117122
 10
139.859264343409
 20
35.6535969341843
 10
139.858273404061
 20
35.6538123419304
 10
139.857766596709
 20
35.6545938716644
 10
139.857774442944
 20
35.6571980018553
 10
139.857698331789
 20
35.6581234789259
 10
139.856830994012
 20
35.6593255367669
 10
139.85693841743
 20
35.6595986853885
 10
139.856498003272
 20
35.6606898729445
 10
139.856195476742
 20
35.6615432454956
 10
139.855725766338
 20
35.6617631216739
 10
139.855096679468
 20
35.6617404377649
 10
139.854290788249
 20
35.6613024717591
 10
139.85357657223
 20
35.661059877811
 10
139.853090510064
 20
35.6609727491071
 10
139.852913967795
 20
35.6610029513989
 10
139.852692327125
 20
35.6611594240753
 10
139.852066874464
 20
35.6614081653703
 10
139.851617898621
 20
35.6617076869916
 10
139.85141092549
 20
35.6621766307675
 10
139.851191834337
 20
35.6621634280711
 10
139.85038598557
 20
35.6628692906679
 10
139.849789512614
 20
35.6630296411494
 10
139.849151899011
 20
35.6635156421088
 10
139.849039128941
 20
35.6640327633768
 10
139.848585938686
 20
35.6647784296573
 10
139.848543885045
 20
35.6659812640214
 10
139.848209470362
 20
35.6665586200361
 10
139.848187226542
 20
35.6673559117442
 10
139.848243084081
 20
35.6677845897025
 10
139.847825755292
 20
35.6685332026086
 10
139.847695989102
 20
35.6689056137694
 10
139.847698157961
 20
35.6691917569595
 10
139.847841808472
 20
35.6695251227525
 10
139.847850196799
 20
35.6697149693496
 10
139.847884419593
 20
35.6710678279397
 10
139.847990967701
 20
35.6713336494454
 10
139.848192059239
 20
35.6714944806923
 10
139.849425967318
 20
35.6719883705354
 10
139.849938592458
 20
35.672636896118
 10
139.850844213988
 20
35.6736094670826
 10
139.852564633858
 20
35.6744537215842
 10
139.853043004637
 20
35.6745850182994
 10
139.853346432316
 20
35.6739366897345
 10
139.853642213554
 20
35.6739390128319
 10
139.85316037671
 20
35.6748147941267
 10
139.853194242514
 20
35.6750965410033
 10
139.853261984926
 20
35.6757824684013
 10
139.853168147731
 20
35.6759974732585
 10
139.853060003959
 20
35.6759412369936
 10
139.853104872959
 20
35.6755814210132
 10
139.853020208901
 20
35.6750871250359
 10
139.85206129958
 20
35.6744463046417
 10
139.850615824702
 20
35.6738315445546
 10
139.849451622945
 20
35.6724946940824
 10
139.849023033313
 20
35.6721543018391
 10
139.847844813231
 20
35.6716945391218
 10
139.847439759734
 20
35.6710398633081
 10
139.847329249519
 20
35.6700573216344
 10
139.846896128077
 20
35.6688522785135
 10
139.845888696736
 20
35.6678336131172
 10
139.845561323042
 20
35.6740450442787
 10
139.846385262186
 20
35.6773454105277
 10
139.846747918771
 20
35.6787963023856
 10
139.84684847125
 20
35.6801371127493
 10
139.846850140029
 20
35.6816347034321
 10
139.8464271912
 20
35.6827661539806
 10
139.848660769323
 20
35.6865338548895
 10
139.849190254194
 20
35.6944172886438
 10
139.84497159889
 20
35.6991175660483
 10
139.8375643845
 20
35.7023505620905
 10
139.835350770499
 20
35.7045448576907
 10
139.8374156047
 20
35.7076497414688
 10
139.839913108896
 20
35.7095510495606
 10
139.840136404195
 20
35.7115650179272
 10
139.836627949588
 20
35.7135754089726
 10
139.835659370323
 20
35.7166206656096
 10
139.83761903045
 20
35.7163374929982
 10
139.840881343441
 20
35.7148466007396
 10
139.843311348966
 20
35.7155838011329
 10
139.846686665187
 20
35.7185027322709
 10
139.846135715067
 20
35.7213134503963
 10
139.842913534773
 20
35.7235007336763
 10
139.841675378698
 20
35.7253925247325
 10
139.848476694502
 20
35.7264746433589
 10
139.850815298953
 20
35.7295913451184
 10
139.856104634278
 20
35.7312493592398
 10
139.854741512567
 20
35.737648901691
 10
139.861519967466
 20
35.7379009633628
 10
139.858643922702
 20
35.7439287426517
 10
139.862755193923
 20
35.747579828742
 10
139.861444114708
 20
35.7482275825865
 10
139.856897602926
 20
35.7441440394469
 10
139.859529299918
 20
35.7382461348217
 10
139.85321290447
 20
35.7386425199628
 10
139.85434685162
 20
35.7313278308717
 10
139.850148797085
 20
35.7305874648373
 10
139.847719067587
 20
35.7281997581648
 10
139.843599033939
 20
35.7273508321265
 10
139.840155108261
 20
35.7264083820559
 10
139.839430338521
 20
35.7234641097256
 10
139.844249947096
 20
35.7208085802955
 10
139.843703600461
 20
35.7177425420027
 10
139.841169916203
 20
35.7158611852556
 10
139.837658766834
 20
35.7182321620611
 10
139.834230582673
 20
35.7181164173458
 10
139.832213325575
 20
35.7152664867236
 10
139.834311589176
 20
35.7116859115784
 10
139.838577418807
 20
35.7103647572302
 10
139.834683458062
 20
35.7068347339866
 10
139.833740586849
 20
35.7046303019774
 10
139.834380298203
 20
35.7029490507297
 10
139.837154000472
 20
35.7012527475962
 10
139.843122274602
 20
35.6990256170759
 10
139.847591338691
 20
35.6945029131261
 10
139.847124800841
 20
35.6872704959154
 10
139.845508267335
 20
35.6826843040082
 10
139.845893772484
 20
35.6811946117086
 10
139.845763156901
 20
35.6792247356584
 10
139.845378106084
 20
35.6780867378443
 10
139.845114583467
 20
35.6770922252429
 10
139.845118922626
 20
35.6758451320588
 10
139.844941466405
 20
35.6757528145997
 10
139.844508085116
 20
35.6757857707941
 10
139.844468713022
 20
35.675582067861
 10
139.844891046401
 20
35.6755427124114
 10
139.845088468201
 20
35.6753897173252
 10
139.845009523632
 20
35.6749257648174
 10
139.844695275415
 20
35.6745778285859
 10
139.84407586933
 20
35.6746204474458
 10
139.844938460076
 20
35.6656103793421
 10
139.838312102349
 20
35.6663231688849
 10
139.828990872349
 20
35.6692851211663
 10
139.828974382988
 20
35.6662791483869
 10
139.829071549746
 20
35.6631989485833
 10
139.825378739674
 20
35.6629729602161
 10
139.824692053483
 20
35.663609216982
 10
139.821284738579
 20
35.6641926873806
 10
139.821101473313
 20
35.6659540949592
 10
139.81096974691
 20
35.6654571244085
 10
139.809167491059
 20
35.6652975834854
 10
139.808671059876
 20
35.6652515918345
 10
139.806520421924
 20
35.6652962212038
 10
139.805763103827
 20
35.6652756109006
 10
139.803041295873
 20
35.6652302671839
 10
139.80255946755
 20
35.6652087339063
 10
139.80176363124
 20
35.6645495425887
 10
139.800771374377
 20
35.6637325477814
 10
139.797290167713
 20
35.6614879401142
 10
139.797036812388
 20
35.6614356066189
 10
139.796837843813
 20
35.6615382241155
 10
139.794034366425
 20
35.6646794540058
 10
139.792961558352
 20
35.665773630864
 10
139.791793049321
 20
35.6669834059527
 10
139.791647644038
 20
35.6668589187639
 10
139.791335784404
 20
35.6668795022587
 10
139.791161205722
 20
35.6670269570748
 10
139.791126901818
 20
35.6672226580698
 10
139.791216146208
 20
35.6673322084624
 10
139.791167940075
 20
35.6673805526542
 10
139.789665662832
 20
35.6691387643536
 10
139.789020849196
 20
35.6705982051372
 10
139.788513331464
 20
35.6720181820297
 10
139.788454329368
 20
35.6745426185461
 10
139.788539709313
 20
35.6762836239551
 10
139.789045116567
 20
35.6771773092712
 10
139.789895608719
 20
35.6784726986793
 10
139.791560121169
 20
35.6806565922016
 10
139.792718099651
 20
35.6818712485122
 10
139.793228586738
 20
35.6825760741543
 10
139.793637174236
 20
35.6833283022425
 10
139.793745385087
 20
35.6842634215426
 10
139.793965862931
 20
35.6849790481198
 10
139.79403447683
 20
35.6855772815006
 10
139.793985968137
 20
35.686338846836
 10
139.793793132437
 20
35.6870414345435
 10
139.793611812031
 20
35.687767470128
 10
139.793309056676
 20
35.6883641163709
 10
139.792145597989
 20
35.6899948835584
 10
139.791144911476
 20
35.69112873053
 10
139.790691114792
 20
35.6918818827847
 10
139.790461072187
 20
35.692119728057
 10
139.790077597674
 20
35.6927934183804
 10
139.789677663589
 20
35.6934604354665
 10
139.789587548609
 20
35.6943111049012
 10
139.789965896183
 20
35.6954159854106
 10
139.790826617653
 20
35.6960278563637
 10
139.791797265049
 20
35.696753654137
 10
139.792587584876
 20
35.697662837759
 10
139.793312328088
 20
35.6994256390932
 10
139.794038607967
 20
35.7006421088344
 10
139.794528965564
 20
35.7015645758496
 10
139.794882651581
 20
35.7024869971504
 10
139.7956458531
 20
35.704221956205
 10
139.796609935216
 20
35.7047559186378
 10
139.79713138489
 20
35.7060479400236
 10
139.797570327892
 20
35.7070900533652
 10
139.798070395112
 20
35.7078564919189
 10
139.797942384981
 20
35.7081210766416
 10
139.799004113425
 20
35.7094250765896
 10
139.799304749515
 20
35.7095382148791
 10
139.800454345459
 20
35.7108378517533
 10
139.80770271957
 20
35.7174355039439
 10
139.811141905097
 20
35.7235701844846
 10
139.810304722717
 20
35.7278217919823
 10
139.811520104239
 20
35.7319633164683
 10
139.815390451228
 20
35.7355029477966
 10
139.81579525281
 20
35.7395555155639
 10
139.811103143122
 20
35.7423005165115
 10
139.809893642578
 20
35.7402178609511
 10
139.812629291131
 20
35.7392794808106
 10
139.812239876822
 20
35.7366601319678
 10
139.808648122276
 20
35.7297665959244
 10
139.808477693211
 20
35.725750321368
 10
139.807158379124
 20
35.7204006352064
 10
139.8038480985
 20
35.7163724210923
 10
139.799591946475
 20
35.7123853763867
 10
139.799157959365
 20
35.7119171582156
 10
139.798925148437
 20
35.7116754736457
 10
139.798758857368
 20
35.7114368785251
 10
139.798512912249
 20
35.7111532053888
 10
139.798359568508
 20
35.7109549943583
 10
139.798056990246
 20
35.7104866072251
 10
139.797791679729
 20
35.7100960906239
 10
139.797191751972
 20
35.709324858923
 10
139.796795704017
 20
35.7088561799481
 10
139.796431558403
 20
35.7085135482265
 10
139.795996909469
 20
35.7078889957234
 10
139.795347944994
 20
35.7066979755294
 10
139.794783534444
 20
35.7056581166186
 10
139.794656261099
 20
35.7054070368866
 10
139.794513816855
 20
35.7051619992212
 10
139.794383791448
 20
35.7048960745323
 10
139.794229442505
 20
35.7046188337078
 10
139.794133953516
 20
35.7044862762051
 10
139.794057490744
 20
35.7043271378802
 10
139.793827076066
 20
35.7038751689096
 10
139.793567156378
 20
35.7035129125026
 10
139.793330223613
 20
35.7029743536502
 10
139.79318661297
 20
35.702602467977
 10
139.792902138692
 20
35.70202625178
 10
139.79218830773
 20
35.7011655777844
 10
139.791561211243
 20
35.7001575645045
 10
139.790792763872
 20
35.6991701304777
 10
139.79012565116
 20
35.6983226486671
 10
139.789073419341
 20
35.6972827059148
 10
139.788619875763
 20
35.6967498452401
 10
139.788284872351
 20
35.6962113977917
 10
139.787830689704
 20
35.6955021142386
 10
139.787690217388
 20
35.6950013181014
 10
139.787378681544
 20
35.6943153259783
 10
139.787616428602
 20
35.6940992237981
 10
139.787715368007
 20
35.6937926454486
 10
139.787571619359
 20
35.693633209573
 10
139.787705999486
 20
35.693405183312
 10
139.787754921725
 20
35.6925710516031
 10
139.788003648733
 20
35.6925545842865
 10
139.788041087413
 20
35.6922606756434
 10
139.788225699047
 20
35.6916781742581
 10
139.788133435994
 20
35.6915347826874
 10
139.788150679845
 20
35.691260381476
 10
139.788155835041
 20
35.6909378241248
 10
139.788269345702
 20
35.6906270930106
 10
139.788582068934
 20
35.6900918391272
 10
139.788889026963
 20
35.6895761972732
 10
139.789108251275
 20
35.689150437262
 10
139.789645765945
 20
35.6886556463195
 10
139.790071500281
 20
35.6882351862007
 10
139.790531374305
 20
35.6878527439666
 10
139.79129884103
 20
35.6872448978551
 10
139.791513250941
 20
35.6870397331866
 10
139.791811217584
 20
35.6866205221472
 10
139.792127759091
 20
35.6862416375545
 10
139.792078388295
 20
35.6859078363993
 10
139.791987441083
 20
35.6857395045324
 10
139.791882812707
 20
35.6855313044779
 10
139.791640764365
 20
35.6852855596882
 10
139.79083001662
 20
35.6846599160029
 10
139.790540195244
 20
35.6841657542257
 10
139.788562976575
 20
35.6827674372053
 10
139.788441798596
 20
35.68209565528
 10
139.788935656779
 20
35.6816499354081
 10
139.7872697992
 20
35.6784550476808
 10
139.787009835296
 20
35.6776067692698
 10
139.786847969177
 20
35.676890068876
 10
139.786277749806
 20
35.6748779914072
 10
139.784595902529
 20
35.6728097216406
 10
139.78307489917
 20
35.6718791826145
 10
139.781491681204
 20
35.6711741079611
 10
139.78133070304
 20
35.6704138908247
 10
139.781237656135
 20
35.6702466180948
 10
139.780018066772
 20
35.6674618938391
 10
139.779689255869
 20
35.6668044921966
 10
139.779127363808
 20
35.6661802280999
 10
139.778134773518
 20
35.6653028598993
 10
139.777901760246
 20
35.6652671308549
 10
139.777403219857
 20
35.6648595960103
 10
139.777012801111
 20
35.6653111795336
 10
139.776733720693
 20
35.66559226061
 10
139.776812663357
 20
35.6649700090846
 10
139.776741294883
 20
35.6646448956138
 10
139.775192841459
 20
35.6635665917686
 10
139.774274061928
 20
35.6631001276131
 10
139.774021067821
 20
35.6633536922485
 10
139.772941060417
 20
35.662357133437
 10
139.772644660628
 20
35.6621501977034
 10
139.771491027079
 20
35.6610653264597
 10
139.770171679267
 20
35.66192084846
 10
139.768563314386
 20
35.6603579254018
 10
139.768045606035
 20
35.659806622577
 10
139.767223613898
 20
35.6593113766527
 10
139.765902897527
 20
35.6585367707728
 10
139.764567495633
 20
35.6577856601787
 10
139.763170952263
 20
35.6570969584254
 10
139.761797612685
 20
35.6579913894134
 10
139.760080981296
 20
35.6591071909343
 10
139.759855180981
 20
35.6588290482777
 10
139.760014278234
 20
35.6585031018576
 10
139.759926848049
 20
35.6571843962779
 10
139.759727928269
 20
35.6561747263817
 10
139.757964127104
 20
35.6563557025784
 10
139.757899859147
 20
35.6560936397074
 10
139.760036630725
 20
35.655849925601
 10
139.760101224135
 20
35.653957641278
 10
139.759991845981
 20
35.6538127048128
 10
139.759191579456
 20
35.6537058742391
 10
139.759042506352
 20
35.6527272623621
 10
139.757733740022
 20
35.6526387286741
 10
139.757704765705
 20
35.6523242468127
 10
139.757751845981
 20
35.6493979693189
 10
139.757205984729
 20
35.6493002059041
 10
139.757139718927
 20
35.6496360161182
 10
139.754928177748
 20
35.648935756923
 10
139.75421829953
 20
35.6484904970991
 10
139.7520479274
 20
35.6473827199229
 10
139.746217612594
 20
35.6446935627698
 10
139.743730566433
 20
35.6431842962759
 10
139.741967722861
 20
35.6409937644538
 10
139.741419578517
 20
35.6391014405926
 10
139.74034829335
 20
35.6367682476531
 10
139.739085453916
 20
35.6348688682362
 10
139.738785628897
 20
35.6339503970195
 10
139.738706806582
 20
35.6326259596084
 10
139.738835807134
 20
35.6304692559568
 10
139.738951061204
 20
35.6288804606371
 10
139.739046987867
 20
35.6262116844658
 10
139.739080652607
 20
35.6251863008947
 10
139.738997166301
 20
35.6249492177216
 10
139.739111296576
 20
35.6245691295741
 10
139.739293932601
 20
35.6244299134234
 10
139.739173838357
 20
35.6241628015986
 10
139.73918607722
 20
35.6238528847325
 10
139.739368949497
 20
35.6235197614829
 10
139.739746251173
 20
35.6229198153305
 10
139.739986432534
 20
35.6229451977728
 10
139.740522367288
 20
35.6221725031712
 10
139.741657547679
 20
35.6209785442931
 10
139.74228767466
 20
35.6212926548998
 10
139.742016252246
 20
35.6218043583288
 10
139.743428541738
 20
35.6222680322092
 10
139.744564536184
 20
35.6216366342066
 10
139.744588293636
 20
35.6200409382211
 10
139.746259710963
 20
35.6186668054861
 10
139.746293329137
 20
35.6169393854942
 10
139.745250633562
 20
35.6159147087715
 10
139.744840029334
 20
35.6143005820164
 10
139.74487024764
 20
35.6112006872713
 10
139.744823527216
 20
35.6063706775856
 10
139.742458643891
 20
35.6018247438342
 10
139.740995325737
 20
35.5985046065702
 10
139.741018360191
 20
35.5974599949342
 10
139.740962024828
 20
35.596508150214
 10
139.739821890797
 20
35.5959589381866
 10
139.736931483365
 20
35.5923095831299
 10
139.736277404252
 20
35.5903683654156
 10
139.735963298274
 20
35.587912294608
 10
139.73647616247
 20
35.5839430267782
 10
139.73789483688
 20
35.5774667571375
 10
139.738625218938
 20
35.574188618595
 10
139.739458507515
 20
35.5744275284531
 10
139.74299161386
 20
35.571967418425
 10
139.743562725324
 20
35.5712389408344
 10
139.744056546839
 20
35.5708715302787
 10
139.745128766735
 20
35.5699546104113
 10
139.745724328774
 20
35.5694761090498
 10
139.7462428507
 20
35.5689623153845
 10
139.747192811581
 20
35.5687463823943
 10
139.749238699462
 20
35.5669326514604
 10
139.750756384541
 20
35.5653222631868
 10
139.752041806251
 20
35.5639854941025
 10
139.752922046974
 20
35.5630700913402
 10
139.753134586618
 20
35.5625388543279
 10
139.752343645912
 20
35.5610714018342
 10
139.751597243658
 20
35.5608059589415
 10
139.751624810654
 20
35.5599005791642
 10
139.751277529702
 20
35.5589758249392
 10
139.751067369267
 20
35.5585684013347
 10
139.751129494066
 20
35.5576777188804
 10
139.751005784552
 20
35.5565220768147
 10
139.747491871761
 20
35.5550004902853
 10
139.748217099165
 20
35.5548343593949
 10
139.748694294487
 20
35.5545209228019
 10
139.749328700776
 20
35.5543850813893
 10
139.750136804797
 20
35.5548265737854
 10
139.751084584594
 20
35.5548529613074
 10
139.751650409621
 20
35.5542086802356
 10
139.752114303268
 20
35.5540954407412
 10
139.752605966864
 20
35.5534504534877
 10
139.752974906236
 20
35.5533802748834
 10
139.75321898001
 20
35.5556957602348
 10
139.754421130076
 20
35.5554364283624
 10
139.754448171006
 20
35.5552397556608
 10
139.757442094218
 20
35.5545985907916
 10
139.757814621992
 20
35.5542793341982
 10
139.758056679289
 20
35.5540261303368
 10
139.758496452256
 20
35.5538832920196
 10
139.758637445547
 20
35.5537996043397
 10
139.758830727902
 20
35.5536252081975
 10
139.759124848295
 20
35.5533038650276
 10
139.759375195558
 20
35.5530385385041
 10
139.759506721843
 20
35.5527421701434
 10
139.759569301941
 20
35.551664527877
 10
139.762111889748
 20
35.551227172474
 10
139.763106889996
 20
35.5510027054419
 10
139.763246386556
 20
35.5507886912517
 10
139.764429696094
 20
35.5507399854076
 10
139.7650487353
 20
35.5515125187365
 10
139.772666100351
 20
35.5476275311226
 10
139.773980062582
 20
35.5461811015275
 10
139.771391005981
 20
35.5412027885859
 10
139.768957747771
 20
35.5407725416609
 10
139.767135154738
 20
35.5407030303347
 10
139.766218724559
 20
35.5407655129637
 10
139.763062491991
 20
35.5414269367592
 10
139.760037333802
 20
35.5435455966216
 10
139.75620121331
 20
35.5456135304885
 10
139.755385760038
 20
35.5456895137935
 10
139.754428044739
 20
35.5461065983086
 10
139.752524791541
 20
35.5461633119736
 10
139.751842096275
 20
35.545880205431
 10
139.750799054386
 20
35.5455353932493
 10
139.748994920999
 20
35.545301850021
 10
139.745475956634
 20
35.5442997529821
 10
139.74475707404
 20
35.5442376274216
 10
139.742898110707
 20
35.5445876141554
 10
139.742513693988
 20
35.5430922523132
 10
139.745177168232
 20
35.5428966167692
 10
139.745884890619
 20
35.5430297823392
 10
139.746506186259
 20
35.5433404856913
 10
139.747180592934
 20
35.5436676766805
 10
139.748854039612
 20
35.5442330869424
 10
139.751032877694
 20
35.5444158654781
 10
139.752446232438
 20
35.544798526281
 10
139.754450116706
 20
35.544309810454
 10
139.754418102974
 20
35.5437738311795
 10
139.75609738029
 20
35.5432138733385
 10
139.757430074943
 20
35.5426858525648
 10
139.758921989678
 20
35.5420175545174
 10
139.7601804696
 20
35.541429096283
 10
139.760324952661
 20
35.5408146336213
 10
139.760474547113
 20
35.5401746796335
 10
139.760309319575
 20
35.5399328179459
 10
139.760047817597
 20
35.5399463086238
 10
139.759823509827
 20
35.5402350651371
 10
139.759604032643
 20
35.5397605706532
 10
139.759141844648
 20
35.538922529411
 10
139.75905379835
 20
35.5384324523652
 10
139.758387200533
 20
35.5373080241974
 10
139.757906885841
 20
35.5372001143137
 10
139.7576048316
 20
35.5368839432049
 10
139.755519911189
 20
35.5333696846737
 10
139.754825513917
 20
35.5319869823587
 10
139.753978231249
 20
35.5322156321578
 10
139.753035017437
 20
35.5325032859751
 10
139.752141465157
 20
35.5329166600699
 10
139.751607909392
 20
35.5328974663845
 10
139.750441251125
 20
35.5330401221453
 10
139.749701956913
 20
35.531963201652
 10
139.749878234701
 20
35.5313279636921
 10
139.749341300552
 20
35.5281158537834
 10
139.746635943676
 20
35.5235240993832
 10
139.740651196384
 20
35.5188793385275
 10
139.739128217937
 20
35.5188344475144
 10
139.7384397674
 20
35.5191231027142
 10
139.737597760589
 20
35.518639926054
 10
139.736777388541
 20
35.5188206581712
 10
139.734447914178
 20
35.5194121945249
 10
139.732296105968
 20
35.5171215243966
 10
139.729767780356
 20
35.5158401990957
 10
139.729057446165
 20
35.5156997060733
 10
139.72565396605
 20
35.5167259512664
 10
139.725227343618
 20
35.5154895024548
 10
139.724633817269
 20
35.5147620678545
 10
139.72329345696
 20
35.5143851808638
 10
139.722646247227
 20
35.5138924986206
 10
139.72133396256
 20
35.5135335959207
 10
139.721733691864
 20
35.512031817137
 10
139.715052507004
 20
35.5104281728249
 10
139.71070439402
 20
35.5077305121457
 10
139.707886611836
 20
35.505958258684
 10
139.704264794615
 20
35.5032846536919
 10
139.700634403014
 20
35.5011196220523
 10
139.69706675662
 20
35.49947897045
 10
139.695293643581
 20
35.4979080192103
 10
139.692829050936
 20
35.4971062656383
 10
139.688513834426
 20
35.4957338472292
 10
139.680663179046
 20
35.4954730423824
 10
139.679625785053
 20
35.4959321353612
 10
139.679215422251
 20
35.4975554412562
 10
139.67812080793
 20
35.4976494872897
 10
139.677491888687
 20
35.4984962742565
 10
139.677605896325
 20
35.5000861493426
 10
139.677810943456
 20
35.5008853308031
 10
139.678773195492
 20
35.5022864099054
 10
139.680573952658
 20
35.5044759828978
 10
139.679177304508
 20
35.5045145729128
 10
139.678125983889
 20
35.5030338498262
 10
139.677444717649
 20
35.5024138738547
 10
139.676610994068
 20
35.5009553529321
 10
139.676209462328
 20
35.5000531485269
 10
139.675974614136
 20
35.4990498417443
 10
139.675921904814
 20
35.4976365080888
 10
139.676128349289
 20
35.496444334094
 10
139.676325563531
 20
35.4957512969726
 10
139.675866392641
 20
35.4956379939773
 10
139.673195482545
 20
35.4942897827959
 10
139.672553801366
 20
35.4940940427109
 10
139.671813515746
 20
35.4940056069961
 10
139.670135475056
 20
35.4929701294356
 10
139.66865424968
 20
35.492519758109
 10
139.667716818997
 20
35.4923644223928
 10
139.666524114654
 20
35.4919449036706
 10
139.666232052309
 20
35.4915267614702
 10
139.666122412415
 20
35.490983392457
 10
139.666002432548
 20
35.4909650507992
 10
139.6659865
 20
35.4911902008953
 10
139.665928074899
 20
35.4913071170269
 10
139.665771608107
 20
35.491355499836
 10
139.665591712462
 20
35.491227715319
 10
139.665646295686
 20
35.4910252227122
 10
139.665695322848
 20
35.4908923428542
 10
139.665564740169
 20
35.490843450177
 10
139.665373897169
 20
35.4907929274052
 10
139.665138465035
 20
35.4908019200664
 10
139.665349962036
 20
35.4910396847105
 10
139.665164127648
 20
35.4913823296288
 10
139.66472106771
 20
35.4913156837881
 10
139.664082737868
 20
35.4908562152448
 10
139.663505958633
 20
35.4904834148343
 10
139.662108921247
 20
35.4900969407813
 10
139.662321809682
 20
35.4896209039452
 10
139.660973323759
 20
35.4884794398998
 10
139.656905837454
 20
35.486106897837
 10
139.654824105838
 20
35.4856772553488
 10
139.652221838473
 20
35.4845948117072
 10
139.650247514276
 20
35.4841328753422
 10
139.647504333096
 20
35.4835124097083
 10
139.645569750842
 20
35.4827964988674
 10
139.643265510731
 20
35.4816582145282
 10
139.640878987788
 20
35.4801118435255
 10
139.638913716536
 20
35.4782720767234
 10
139.638344450217
 20
35.477443284073
 10
139.63595329096
 20
35.4751715447834
 10
139.634517723239
 20
35.473123092206
 10
139.636465300298
 20
35.4717708576841
 10
139.6366854589
 20
35.4716828121216
 10
139.636949791489
 20
35.4717046208824
 10
139.637315952017
 20
35.4715462075811
 10
139.637634205481
 20
35.4712242638163
 10
139.637479988603
 20
35.4710925461754
 10
139.63711985816
 20
35.4709977913305
 10
139.636978152937
 20
35.4708344190833
 10
139.636786822047
 20
35.4708045989454
 10
139.636569152144
 20
35.4705272854995
 10
139.636111886565
 20
35.4705577620079
 10
139.635888586548
 20
35.4702926072873
 10
139.635372695391
 20
35.4701350048227
 10
139.634975356445
 20
35.4706090742729
 10
139.63497771744
 20
35.4708751109159
 10
139.634566508783
 20
35.4711097923264
 10
139.63350818543
 20
35.4699246488
 10
139.631633245077
 20
35.4686990390812
 10
139.629877344533
 20
35.4688066797382
 10
139.628122093456
 20
35.4687856911775
 10
139.627520804793
 20
35.4687785012184
 10
139.626011050494
 20
35.4687604482059
 10
139.624700353513
 20
35.4672126369371
 10
139.624354772193
 20
35.4667331710606
 10
139.623422732182
 20
35.4652504677888
 10
139.623432384641
 20
35.4648795160475
 10
139.623324527231
 20
35.4646718821277
 10
139.622998759091
 20
35.4635288448872
 10
139.623062369579
 20
35.4622388931863
 10
139.623653834795
 20
35.4610069825054
 10
139.625172573586
 20
35.4588592193764
 10
139.625554255212
 20
35.4588563174192
 10
139.62629464976
 20
35.4581096480826
 10
139.627535259475
 20
35.4564430129623
 10
139.628479689795
 20
35.4568342048466
 10
139.633432621527
 20
35.4511878935192
 10
139.633862204315
 20
35.4513666626974
 10
139.633809412453
 20
35.4515852647311
 10
139.635095157455
 20
35.4515301059102
 10
139.635119537335
 20
35.4518213835512
 10
139.635392258211
 20
35.4517831549656
 10
139.635395292396
 20
35.4515172300372
 10
139.635669045906
 20
35.451505485935
 10
139.636084186132
 20
35.4515180856911
 10
139.636775423287
 20
35.4524391636626
 10
139.63911827903
 20
35.4513251970699
 10
139.638920450795
 20
35.4509751474463
 10
139.643260707448
 20
35.4489837769128
 10
139.648747336756
 20
35.4458697323028
 10
139.649904065515
 20
35.4451366531614
 10
139.651470346505
 20
35.4442266085547
 10
139.653592463338
 20
35.442709285093
 10
139.656238368436
 20
35.4403991332232
 10
139.65595968582
 20
35.4402587084126
 10
139.658424521609
 20
35.4380783122919
 10
139.662198823643
 20
35.4349479574062
 10
139.662722795027
 20
35.4346647242316
 10
139.663215607024
 20
35.4345514258544
 10
139.663631292926
 20
35.434288325727
 10
139.66391992081
 20
35.4343049592322
 10
139.664318663609
 20
35.4343613073621
 10
139.664674343784
 20
35.4343058039196
 10
139.664817751294
 20
35.4341449143856
 10
139.664866509959
 20
35.4339094896697
 10
139.664838013231
 20
35.4334482881114
 10
139.665004273009
 20
35.4331558789517
 10
139.665347187524
 20
35.4329056964234
 10
139.666070910988
 20
35.4325276799874
 10
139.666617196202
 20
35.431398568089
 10
139.666765792811
 20
35.4313153171864
 10
139.666957426897
 20
35.4312941955219
 10
139.667310149602
 20
35.4315202875987
 10
139.667564923621
 20
35.4315394347567
 10
139.667729107505
 20
35.4315132830335
 10
139.667848248774
 20
35.4313621241703
 10
139.66794489735
 20
35.4311507878438
 10
139.66810549461
 20
35.4310081030982
 10
139.668199173952
 20
35.4308918184212
 10
139.668243728321
 20
35.4307763948758
 10
139.668213732622
 20
35.4306966499806
 10
139.668148352251
 20
35.4306244948887
 10
139.66806608828
 20
35.4305367259206
 10
139.66782143203
 20
35.4303958778181
 10
139.667757117177
 20
35.430238054226
 10
139.667745169678
 20
35.4297329621727
 10
139.668134015617
 20
35.4290294291779
 10
139.668632501927
 20
35.4283474946358
 10
139.669087733441
 20
35.4279123835433
 10
139.669127737489
 20
35.4257884052811
 10
139.670339483729
 20
35.4203303635085
 10
139.670332721155
 20
35.4193731037928
 10
139.670176306535
 20
35.4182860488468
 10
139.669625359144
 20
35.4176549216443
 10
139.669010307051
 20
35.4172568380622
 10
139.668387489624
 20
35.4169991861985
 10
139.668025529039
 20
35.4166806642945
 10
139.66766551111
 20
35.4160277450058
 10
139.667563005411
 20
35.4154998395065
 10
139.666780167303
 20
35.4149448851979
 10
139.665967062517
 20
35.4144144882171
 10
139.665079456518
 20
35.4140627587867
 10
139.664621607334
 20
35.4139584154517
 10
139.66413117694
 20
35.4138908509683
 10
139.663306846186
 20
35.4139119699828
 10
139.662872901019
 20
35.4139628741415
 10
139.662351716263
 20
35.4141792499486
 10
139.661657906685
 20
35.4142974687394
 10
139.661026226286
 20
35.4144236867096
 10
139.660415304043
 20
35.4146036262911
 10
139.659063792667
 20
35.4150746132797
 10
139.658326383843
 20
35.4155986565457
 10
139.656855465152
 20
35.4161985290825
 10
139.654752490977
 20
35.4173180341722
 10
139.653204826714
 20
35.4176799561207
 10
139.652455487829
 20
35.4179495928027
 10
139.651836659405
 20
35.418355499225
 10
139.65131080542
 20
35.4183799715058
 10
139.650161090308
 20
35.418705350215
 10
139.649402603152
 20
35.4190958783626
 10
139.646745059302
 20
35.4189846404612
 10
139.642812275129
 20
35.4185413598248
 10
139.638942158282
 20
35.4180396681212
 10
139.634650170922
 20
35.4172512881108
 10
139.631243937261
 20
35.4162483704166
 10
139.627576913795
 20
35.4149917380939
 10
139.625295514405
 20
35.4137171121228
 10
139.622254342919
 20
35.4116603971193
 10
139.622300598811
 20
35.4113509350771
 10
139.620768755495
 20
35.409997840947
 10
139.620713507779
 20
35.409686524073
 10
139.620917598861
 20
35.4093032628991
 10
139.621040011899
 20
35.4089439896648
 10
139.620956065419
 20
35.4085573301149
 10
139.620712463517
 20
35.4083647689923
 10
139.620833185316
 20
35.4080160442047
 10
139.620965921444
 20
35.4077647954021
 10
139.620883586451
 20
35.4074907625625
 10
139.620823441447
 20
35.4072686620102
 10
139.620612105007
 20
35.407008148539
 10
139.620242098
 20
35.4064670936979
 10
139.620035722763
 20
35.4059817732627
 10
139.619971812564
 20
35.405587475515
 10
139.619951136676
 20
35.4050975286841
 10
139.619845250247
 20
35.40446279187
 10
139.619431738072
 20
35.4038760926149
 10
139.61860887295
 20
35.4029645047364
 10
139.617997483868
 20
35.4020094943494
 10
139.617519503097
 20
35.4015187757198
 10
139.617115074734
 20
35.4012797407761
 10
139.616515391504
 20
35.4009595870621
 10
139.615975707558
 20
35.4007508418932
 10
139.615500711857
 20
35.4004523322209
 10
139.615295825937
 20
35.400018968027
 10
139.615100009086
 20
35.3996047862639
 10
139.614960526657
 20
35.399071625132
 10
139.614747028931
 20
35.3983647203606
 10
139.614485174991
 20
35.3976190167717
 10
139.614365097538
 20
35.3968971868144
 10
139.614317929778
 20
35.396180764613
 10
139.614683763692
 20
35.3929258307469
 10
139.615137528623
 20
35.3914955730699
 10
139.615397844846
 20
35.3907933186017
 10
139.615884216139
 20
35.3898660396063
 10
139.616843162413
 20
35.3883207179982
 10
139.619529757661
 20
35.3845906162272
 10
139.619626399518
 20
35.3844456072765
 10
139.622348965891
 20
35.3811023904353
 10
139.623643467344
 20
35.380127797941
 10
139.625006476199
 20
35.379230210789
 10
139.625272961871
 20
35.3789865551791
 10
139.625543687961
 20
35.3788379208998
 10
139.625853035173
 20
35.3787466700075
 10
139.626153892348
 20
35.3787824614982
 10
139.626351925628
 20
35.3787015214964
 10
139.626388526764
 20
35.3785521079581
 10
139.626453536267
 20
35.3783558101889
 10
139.626479961785
 20
35.3781411282392
 10
139.626669912227
 20
35.3779824165056
 10
139.626766420461
 20
35.3779175241317
 10
139.626891248881
 20
35.3779042490558
 10
139.627031404396
 20
35.3778985334472
 10
139.627177265811
 20
35.3779624375359
 10
139.627324100702
 20
35.3780267681192
 10
139.627544701551
 20
35.3780307000003
 10
139.62788302679
 20
35.3780592945081
 10
139.628186756597
 20
35.3781678212983
 10
139.628365930066
 20
35.3782318424152
 10
139.628706181351
 20
35.3783802767008
 10
139.629009172699
 20
35.3784549232168
 10
139.629254524833
 20
35.3784496603461
 10
139.629483703535
 20
35.3784772995198
 10
139.629652492882
 20
35.3785143647619
 10
139.629861269504
 20
35.378586046836
 10
139.630099074814
 20
35.3787065128139
 10
139.63020523657
 20
35.3789274395496
 10
139.630498792799
 20
35.3791261745266
 10
139.630760107676
 20
35.379277292932
 10
139.630954822992
 20
35.3793224518915
 10
139.63109749721
 20
35.3792546960533
 10
139.631146026188
 20
35.3792016447803
 10
139.631213593045
 20
35.3791277815362
 10
139.631265103306
 20
35.3790714711625
 10
139.631226059578
 20
35.3788555213202
 10
139.631053869848
 20
35.3786997034353
 10
139.631059740981
 20
35.3785190987481
 10
139.631209757506
 20
35.378383382805
 10
139.631330420388
 20
35.3783921765262
 10
139.631578917976
 20
35.3782085744706
 10
139.631760133292
 20
35.3780366261321
 10
139.631925549782
 20
35.3778796686991
 10
139.632056505556
 20
35.3777239647372
 10
139.632234630653
 20
35.3775211027744
 10
139.632392069955
 20
35.3773752036854
 10
139.632548768319
 20
35.3774285730194
 10
139.63266950123
 20
35.3775376853352
 10
139.632829967689
 20
35.377600675787
 10
139.633647127202
 20
35.3776090526474
 10
139.633857374215
 20
35.3776677595068
 10
139.634087116604
 20
35.3776790657104
 10
139.634272875654
 20
35.3775969911812
 10
139.63441132783
 20
35.3774651946268
 10
139.63452563003
 20
35.3772674136476
 10
139.634623759198
 20
35.3770271963498
 10
139.634724251438
 20
35.3766237390542
 10
139.634915664203
 20
35.3762726382489
 10
139.635179107958
 20
35.3760001695272
 10
139.635239790514
 20
35.3757567249626
 10
139.635438783353
 20
35.3755416999395
 10
139.635685121524
 20
35.3753910835074
 10
139.636000755217
 20
35.3752066500609
 10
139.636073515017
 20
35.3750176742004
 10
139.63605989297
 20
35.3748396700829
 10
139.636062013307
 20
35.3745720729376
 10
139.636027143803
 20
35.3743852195766
 10
139.635907893131
 20
35.3742340818813
 10
139.635717127849
 20
35.3740852067835
 10
139.635682445608
 20
35.3739284124136
 10
139.635690654696
 20
35.3735290488374
 10
139.635473625912
 20
35.3731617734058
 10
139.635339143593
 20
35.3731539308901
 10
139.635175089263
 20
35.3730839473209
 10
139.635097963406
 20
35.3729355407515
 10
139.635117146215
 20
35.3727626632211
 10
139.635143866993
 20
35.3725593753773
 10
139.635210169322
 20
35.3723584985538
 10
139.635242107942
 20
35.3722163420334
 10
139.635172310388
 20
35.3718967186392
 10
139.635214637475
 20
35.3716966770003
 10
139.63530726685
 20
35.3716390054354
 10
139.635480843312
 20
35.3716174946169
 10
139.635629582666
 20
35.3715868264185
 10
139.635717905885
 20
35.3715118254646
 10
139.635695273312
 20
35.3713982536617
 10
139.635599641252
 20
35.371365475623
 10
139.635495173339
 20
35.3713019209064
 10
139.635408162081
 20
35.371157970214
 10
139.635443163998
 20
35.3706963341894
 10
139.635568299316
 20
35.3702500709677
 10
139.63596507089
 20
35.3693772937059
 10
139.635963432708
 20
35.3692025323452
 10
139.635919363743
 20
35.3690284959749
 10
139.635823766171
 20
35.3689556986006
 10
139.635687365403
 20
35.368895707371
 10
139.635539721708
 20
35.3688759513485
 10
139.635382561262
 20
35.3688926889126
 10
139.635318394373
 20
35.3690663472863
 10
139.635163091499
 20
35.3690985314863
 10
139.635013456398
 20
35.3690543701402
 10
139.634865730375
 20
35.3687823407381
 10
139.634743767328
 20
35.3686208442068
 10
139.634593690562
 20
35.3685769922683
 10
139.634432313207
 20
35.3685298383354
 10
139.634209182261
 20
35.3685317434352
 10
139.634192859866
 20
35.3686328489364
 10
139.634162238835
 20
35.3687293676028
 10
139.63410626638
 20
35.3687725087853
 10
139.634025856793
 20
35.3687605391152
 10
139.633770469152
 20
35.3686506298849
 10
139.633547464007
 20
35.3684925895741
 10
139.633180697285
 20
35.3681216228096
 10
139.633024515597
 20
35.3676492226762
 10
139.632996747771
 20
35.3672365453145
 10
139.633016000646
 20
35.366611984603
 10
139.633250349552
 20
35.365172101719
 10
139.633839186113
 20
35.363284807712
 10
139.634747456698
 20
35.3611673363008
 10
139.636061922231
 20
35.3588924114723
 10
139.637296069505
 20
35.3570461035478
 10
139.639072341696
 20
35.3545053304162
 10
139.639929542599
 20
35.3534931731424
 10
139.640627402269
 20
35.3522477290252
 10
139.641469702459
 20
35.3512346380091
 10
139.642743059324
 20
35.3500241581622
 10
139.642869743305
 20
35.3498203958184
 10
139.643041941271
 20
35.3496540153928
 10
139.643253039716
 20
35.3494935019219
 10
139.643316320236
 20
35.3493743162217
 10
139.643261549642
 20
35.3492502948901
 10
139.643144628552
 20
35.3491077432129
 10
139.643017225554
 20
35.3489239002518
 10
139.642939002094
 20
35.3488024904728
 10
139.642794584935
 20
35.3486844118253
 10
139.642793954599
 20
35.3484714150287
 10
139.642646503239
 20
35.3481450098997
 10
139.642737670764
 20
35.3478594444403
 10
139.642466835195
 20
35.3473485402383
 10
139.641586321981
 20
35.3468495006038
 10
139.641150739468
 20
35.3466026298764
 10
139.640779032364
 20
35.346187941404
 10
139.640217688316
 20
35.3466775038527
 10
139.639718126447
 20
35.3460248218381
 10
139.639512201745
 20
35.3455833419446
 10
139.639165619936
 20
35.3460012103367
 10
139.637804422422
 20
35.3457717233492
 10
139.636956985086
 20
35.3449352929379
 10
139.6370541145
 20
35.3441492184192
 10
139.636499410199
 20
35.3436857172162
 10
139.635926449549
 20
35.3433746499035
 10
139.635469741364
 20
35.3436086920953
 10
139.634935228639
 20
35.3432813316201
 10
139.634212939757
 20
35.3431315133555
 10
139.633439145311
 20
35.3422349420897
 10
139.632838138366
 20
35.3418879963338
 10
139.632265396818
 20
35.3417305327345
 10
139.631883291605
 20
35.3403889177931
 10
139.631655811323
 20
35.3385443765844
 10
139.632066964426
 20
35.3357128226294
 10
139.632841783791
 20
35.3335316540596
 10
139.633836411343
 20
35.3316655952604
 10
139.635182005575
 20
35.3300202459596
 10
139.635380524786
 20
35.3293825420864
 10
139.636186644154
 20
35.3291542869942
 10
139.636431815122
 20
35.3285237231288
 10
139.637099650573
 20
35.328216154767
 10
139.63784651422
 20
35.3275071029362
 10
139.637462183894
 20
35.3270102591419
 10
139.637600218852
 20
35.3265023842712
 10
139.637167277608
 20
35.3263736582297
 10
139.636683053602
 20
35.3264156486504
 10
139.636347389555
 20
35.326017389063
 10
139.635841319835
 20
35.3258282897989
 10
139.634992405697
 20
35.324407049697
 10
139.634559742866
 20
35.3244031665222
 10
139.63441234878
 20
35.3240759548144
 10
139.634195619832
 20
35.3240120808183
 10
139.634022422784
 20
35.3241274103364
 10
139.633933207038
 20
35.3242449950785
 10
139.633696876426
 20
35.3243128358574
 10
139.63347240223
 20
35.3244570193117
 10
139.633290554853
 20
35.3246072712879
 10
139.63319402574
 20
35.324892153553
 10
139.633206819811
 20
35.3258840262229
 10
139.63312506541
 20
35.3261233260272
 10
139.632999104033
 20
35.3262179589107
 10
139.632821413236
 20
35.3262846018645
 10
139.632514048733
 20
35.3263194822688
 10
139.631610332025
 20
35.3267120698908
 10
139.631266142542
 20
35.3269118101946
 10
139.631031891881
 20
35.3269068717546
 10
139.629957152911
 20
35.3266193848856
 10
139.629304219665
 20
35.3265727480099
 10
139.62871598155
 20
35.3265672818322
 10
139.628753699468
 20
35.3260966111168
 10
139.629324947156
 20
35.3261446276381
 10
139.629929055074
 20
35.3261249235289
 10
139.630619364447
 20
35.3260236950189
 10
139.631218127432
 20
35.325890473325
 10
139.631650689865
 20
35.3255016149913
 10
139.632049170289
 20
35.3250347894615
 10
139.631979935859
 20
35.3247668421811
 10
139.631802808401
 20
35.3244227335757
 10
139.631637091258
 20
35.3243946459258
 10
139.631556704292
 20
35.3241783680418
 10
139.631317497199
 20
35.3238977334184
 10
139.631298265269
 20
35.3234962195917
 10
139.631242945201
 20
35.3232711169125
 10
139.631228054219
 20
35.3230260096198
 10
139.631477783017
 20
35.3228516204231
 10
139.63149391552
 20
35.3227077317069
 10
139.631307319344
 20
35.3226237067161
 10
139.630822910122
 20
35.3226869986546
 10
139.630298044235
 20
35.3222790690771
 10
139.630409840061
 20
35.3219774035117
 10
139.630105648258
 20
35.3218911471991
 10
139.629719381773
 20
35.3212299274148
 10
139.629579726365
 20
35.3211943788683
 10
139.629426248613
 20
35.3212888212118
 10
139.629306845128
 20
35.3212594472946
 10
139.628896552533
 20
35.3202758807481
 10
139.628746939785
 20
35.3198525431823
 10
139.628625017969
 20
35.3192689959181
 10
139.628747193598
 20
35.3186404040118
 10
139.629517740361
 20
35.3173154372539
 10
139.629718582435
 20
35.317315987072
 10
139.629914519785
 20
35.31738795109
 10
139.630289035403
 20
35.3175547905629
 10
139.630710934414
 20
35.3177648957041
 10
139.631104467446
 20
35.3180302959305
 10
139.631336965327
 20
35.318267792929
 10
139.631973188668
 20
35.3185949997113
 10
139.632626511058
 20
35.3187339614503
 10
139.63295110199
 20
35.3186878783836
 10
139.63319545022
 20
35.3184286422908
 10
139.633391379722
 20
35.3181567185156
 10
139.633721982587
 20
35.3180228449186
 10
139.633920749642
 20
35.3177704268635
 10
139.634150907152
 20
35.3176922736717
 10
139.634260740423
 20
35.3175040693073
 10
139.634303350603
 20
35.3172028382673
 10
139.634061117804
 20
35.316993189724
 10
139.634091975539
 20
35.3168982885066
 10
139.634325047938
 20
35.316870275218
 10
139.634443914476
 20
35.3167032695713
 10
139.634631756242
 20
35.3168553861868
 10
139.634592141119
 20
35.3172877755381
 10
139.635323232578
 20
35.3177163354788
 10
139.63550680572
 20
35.3179880093244
 10
139.635682222841
 20
35.3180474062853
 10
139.635736005628
 20
35.3181716411719
 10
139.635577648145
 20
35.318761543259
 10
139.635444960404
 20
35.318955319306
 10
139.635423107832
 20
35.3191008532731
 10
139.635448872218
 20
35.3192291404576
 10
139.635550355668
 20
35.3192501353886
 10
139.635620993892
 20
35.3191473418355
 10
139.63582470233
 20
35.318990313367
 10
139.636143810709
 20
35.3190986121955
 10
139.636566076433
 20
35.3189470261069
 10
139.637163996254
 20
35.3188199556232
 10
139.637943630327
 20
35.3188304407236
 10
139.638493348212
 20
35.3186832426138
 10
139.639173048763
 20
35.3185971413009
 10
139.639177364889
 20
35.3182772290552
 10
139.639053955002
 20
35.3179448460456
 10
139.638835981881
 20
35.3180034523476
 10
139.638707415314
 20
35.3180150278918
 10
139.638548793964
 20
35.3179144420002
 10
139.638277496361
 20
35.3179768972409
 10
139.638125892372
 20
35.3179528819134
 10
139.637990521811
 20
35.3175906560652
 10
139.637760450396
 20
35.3175791432253
 10
139.637651136417
 20
35.317503566803
 10
139.637759158654
 20
35.3174305608088
 10
139.638529377394
 20
35.3172256433829
 10
139.638963387126
 20
35.3172017846153
 10
139.639495149511
 20
35.3172953531172
 10
139.639985270959
 20
35.3172426357115
 10
139.639900293938
 20
35.3174947411868
 10
139.639752972769
 20
35.3177149952028
 10
139.639551773784
 20
35.3178053483798
 10
139.639548506565
 20
35.3179053606849
 10
139.639894124283
 20
35.3184404532652
 10
139.639990673174
 20
35.318512991757
 10
139.640185832133
 20
35.3184991616381
 10
139.640358566464
 20
35.3184583316624
 10
139.640780232627
 20
35.3184667182029
 10
139.641035629886
 20
35.3183844495101
 10
139.641170233419
 20
35.318359511229
 10
139.641201468317
 20
35.3184135589772
 10
139.641211514508
 20
35.3185356948089
 10
139.641278965875
 20
35.3186267008096
 10
139.641450758213
 20
35.3186452002518
 10
139.641554005192
 20
35.318717079951
 10
139.641593945084
 20
35.3188392682409
 10
139.641691295286
 20
35.3189827837822
 10
139.641859022557
 20
35.319313450354
 10
139.641960734823
 20
35.3194804570769
 10
139.642045956746
 20
35.3195258083163
 10
139.642201538938
 20
35.3194999831617
 10
139.64226507029
 20
35.3195192736678
 10
139.642308314436
 20
35.3195713667074
 10
139.642332791305
 20
35.319689345723
 10
139.642387273041
 20
35.3197490734648
 10
139.64248561758
 20
35.3197991257434
 10
139.642590621527
 20
35.3198029281996
 10
139.642746065009
 20
35.3197732847483
 10
139.643004023553
 20
35.3197240914242
 10
139.643332939011
 20
35.3196613664434
 10
139.643650741612
 20
35.3196100442827
 10
139.643886246845
 20
35.3195854147313
 10
139.644045993291
 20
35.3195929794491
 10
139.644296312438
 20
35.3196625593792
 10
139.644506380108
 20
35.3197515226705
 10
139.644746608332
 20
35.3197790054952
 10
139.645038863608
 20
35.3197967389686
 10
139.645139844467
 20
35.3197399991008
 10
139.645234536627
 20
35.319566232783
 10
139.645237573333
 20
35.3193584817371
 10
139.645213257643
 20
35.3192279489588
 10
139.64514332187
 20
35.3191663075374
 10
139.645027577432
 20
35.3191458468258
 10
139.644867511004
 20
35.3191575534392
 10
139.644699843747
 20
35.3191696265852
 10
139.644524515513
 20
35.3192322391686
 10
139.644406315298
 20
35.3193063942656
 10
139.644323433484
 20
35.3193789432078
 10
139.644213415334
 20
35.3194101105043
 10
139.644093525425
 20
35.3193641154586
 10
139.643976294848
 20
35.3192634560104
 10
139.643888093142
 20
35.319088048491
 10
139.643824865217
 20
35.3189487240747
 10
139.643740229151
 20
35.3186103805737
 10
139.643589263724
 20
35.3178443632124
 10
139.643552828323
 20
35.3175040555521
 10
139.643587191296
 20
35.3171301218565
 10
139.643717259742
 20
35.3166224118706
 10
139.643833280076
 20
35.3162313657622
 10
139.644135811092
 20
35.3153900557942
 10
139.644265319157
 20
35.3150659839073
 10
139.644364651583
 20
35.3149554369839
 10
139.644479850856
 20
35.3148818989903
 10
139.644619527209
 20
35.3148711172702
 10
139.644859230368
 20
35.3148898234054
 10
139.645034485602
 20
35.3149032691391
 10
139.645182050012
 20
35.3148886820399
 10
139.645321589698
 20
35.3148545920782
 10
139.645361343943
 20
35.3147611552762
 10
139.64533671998
 20
35.3146702608305
 10
139.645290714749
 20
35.3145730975617
 10
139.645209928461
 20
35.3144865904115
 10
139.645107257612
 20
35.3144168932874
 10
139.644968606611
 20
35.3143568789713
 10
139.644820884742
 20
35.3143003978164
 10
139.644644152415
 20
35.3142246955162
 10
139.644529918791
 20
35.3141511980981
 10
139.644499996839
 20
35.3140859341677
 10
139.644517444469
 20
35.3139639932972
 10
139.64457176969
 20
35.3138499238965
 10
139.644633164371
 20
35.3137189683968
 10
139.64463065736
 20
35.3135930104805
 10
139.64459528815
 20
35.3134819414841
 10
139.644499372998
 20
35.313404622661
 10
139.644378606303
 20
35.3133650785249
 10
139.64419662178
 20
35.3133026951965
 10
139.644143477356
 20
35.313145724435
 10
139.644428342885
 20
35.3124354856924
 10
139.644372388035
 20
35.3121256596179
 10
139.644109514772
 20
35.3119365130181
 10
139.643751267894
 20
35.31194153888
 10
139.64332721531
 20
35.3121209891809
 10
139.643011184226
 20
35.312136783559
 10
139.642687041486
 20
35.3118184864863
 10
139.642584350658
 20
35.3113845605144
 10
139.642580547169
 20
35.3106213556883
 10
139.642649741921
 20
35.3104166332927
 10
139.643113402364
 20
35.3099156700795
 10
139.643150517641
 20
35.3097672346951
 10
139.643101228975
 20
35.30958889458
 10
139.642657190076
 20
35.3090724950583
 10
139.642972269831
 20
35.3087627293671
 10
139.642886693266
 20
35.3084430185803
 10
139.642615137735
 20
35.3083436381271
 10
139.641858273386
 20
35.3083981205526
 10
139.641305392759
 20
35.3082711098018
 10
139.640892591666
 20
35.3085969221839
 10
139.64041201586
 20
35.3092755352758
 10
139.639905375483
 20
35.3095059213641
 10
139.639771231375
 20
35.309612730154
 10
139.639807737917
 20
35.3098168234415
 10
139.640098698867
 20
35.3102230453619
 10
139.640084012471
 20
35.3103846023741
 10
139.639930690387
 20
35.3105108281049
 10
139.639147894391
 20
35.310757492084
 10
139.638981930772
 20
35.3109895206913
 10
139.639016296654
 20
35.3113533613705
 10
139.639467673796
 20
35.3119276507986
 10
139.639044833883
 20
35.3126383809647
 10
139.638354250517
 20
35.3128228621538
 10
139.637898485878
 20
35.3130758872835
 10
139.63749200179
 20
35.312794328344
 10
139.637343893825
 20
35.3122401748388
 10
139.637241140085
 20
35.3121149060324
 10
139.637092623328
 20
35.3120240821416
 10
139.636853937083
 20
35.3120860724071
 10
139.636662743769
 20
35.3122730431096
 10
139.636470126666
 20
35.3125409414301
 10
139.636190171069
 20
35.3126870780882
 10
139.635991446571
 20
35.3127353225978
 10
139.635855484507
 20
35.3127218482919
 10
139.635874697359
 20
35.3126389503163
 10
139.63607974602
 20
35.3124325019634
 10
139.636153085329
 20
35.3122600279515
 10
139.636136639343
 20
35.3116430681352
 10
139.636541152345
 20
35.3109462673772
 10
139.636726401268
 20
35.3107168964271
 10
139.637062963517
 20
35.3105107058392
 10
139.637224131043
 20
35.3101075046388
 10
139.637720241475
 20
35.3095946396935
 10
139.637612998845
 20
35.3093837945578
 10
139.637207347637
 20
35.3089032294537
 10
139.636877231505
 20
35.3087854339831
 10
139.63647902467
 20
35.3087402129198
 10
139.636103496051
 20
35.3087814156287
 10
139.635774522988
 20
35.3087644730974
 10
139.635593240765
 20
35.3087317815982
 10
139.635581236432
 20
35.3085374017445
 10
139.635644801257
 20
35.3083914394493
 10
139.63578822409
 20
35.3083043515829
 10
139.636115984049
 20
35.3083226527588
 10
139.636493171827
 20
35.308268935599
 10
139.636968233287
 20
35.3081295659894
 10
139.637283317905
 20
35.3080856781669
 10
139.637651287206
 20
35.3081301940838
 10
139.637786317727
 20
35.3083036325191
 10
139.637693061769
 20
35.3085855184138
 10
139.637678626087
 20
35.3087069996014
 10
139.637787704847
 20
35.3087567640997
 10
139.637943393319
 20
35.3087511868622
 10
139.638084746431
 20
35.3086237607887
 10
139.638279882984
 20
35.3084604095013
 10
139.638628749702
 20
35.3082987923712
 10
139.638729256676
 20
35.308183121351
 10
139.639024447499
 20
35.307435642738
 10
139.640577921852
 20
35.3065753443915
 10
139.640997973628
 20
35.3061112551353
 10
139.641513063007
 20
35.3057503000154
 10
139.641833409546
 20
35.3051320462192
 10
139.642331069476
 20
35.3045637405118
 10
139.642272600761
 20
35.3034527584579
 10
139.64222365341
 20
35.303178996944
 10
139.641993518137
 20
35.3031360924214
 10
139.641404603145
 20
35.3032883742625
 10
139.641130484914
 20
35.3032953972421
 10
139.640966181486
 20
35.3032323776441
 10
139.64081268194
 20
35.3028390075018
 10
139.640758079512
 20
35.3026234490993
 10
139.640619881453
 20
35.3025480591887
 10
139.640400342979
 20
35.3026299520883
 10
139.640141602722
 20
35.3029624120314
 10
139.639799353701
 20
35.3036306298366
 10
139.639195187413
 20
35.3041784778432
 10
139.638999775456
 20
35.304266680528
 10
139.638834420175
 20
35.3041660150767
 10
139.63887889126
 20
35.3039199938523
 10
139.639186915551
 20
35.3035680381954
 10
139.639131135008
 20
35.3033809193149
 10
139.638854622783
 20
35.3032625347098
 10
139.638948469521
 20
35.3031228281594
 10
139.639159408479
 20
35.3030138095154
 10
139.638985928264
 20
35.3028510377258
 10
139.638867925104
 20
35.3026938638011
 10
139.638896671223
 20
35.3025267328711
 10
139.639164161963
 20
35.3023173538368
 10
139.638853494361
 20
35.3019302636196
 10
139.63884530017
 20
35.3016989683133
 10
139.638732247609
 20
35.3014926772838
 10
139.638516879583
 20
35.3013247492966
 10
139.63825881423
 20
35.3011899098966
 10
139.637599632132
 20
35.3012005746772
 10
139.636992504417
 20
35.3011223382655
 10
139.636833358323
 20
35.3011759752665
 10
139.636784142364
 20
35.3013232884208
 10
139.636178136526
 20
35.3016677761508
 10
139.635793487393
 20
35.3016653588969
 10
139.635574008369
 20
35.3016509167884
 10
139.635427452222
 20
35.3017646762376
 10
139.635286401676
 20
35.3019194372691
 10
139.63515040262
 20
35.3021444937485
 10
139.634823819196
 20
35.3025700878275
 10
139.634528713787
 20
35.3027029303301
 10
139.634257888888
 20
35.3027169993942
 10
139.633971122144
 20
35.302688646692
 10
139.633704900343
 20
35.3025892885086
 10
139.633701781155
 20
35.3024422158442
 10
139.633901629334
 20
35.3021359365582
 10
139.633975003599
 20
35.301837242418
 10
139.633957312804
 20
35.3015451953853
 10
139.633625542514
 20
35.301522704284
 10
139.633308517781
 20
35.3016074848099
 10
139.633188666933
 20
35.3017841783269
 10
139.63323149288
 20
35.3020565686626
 10
139.633167309857
 20
35.3022862566312
 10
139.632869120566
 20
35.3025773717675
 10
139.6326985501
 20
35.3027281099722
 10
139.632515989933
 20
35.3027758914979
 10
139.63231393452
 20
35.3026900121551
 10
139.632264706531
 20
35.3023744287589
 10
139.632040048437
 20
35.3021112090278
 10
139.632034847965
 20
35.3014284248643
 10
139.631755744452
 20
35.3012170036217
 10
139.631498457856
 20
35.3011138739851
 10
139.631334464392
 20
35.301145526572
 10
139.631210720594
 20
35.3012192522445
 10
139.63115212096
 20
35.3012733692096
 10
139.631062073056
 20
35.3012736915578
 10
139.631016014121
 20
35.3012289781163
 10
139.630990119749
 20
35.3010497233728
 10
139.631056731312
 20
35.3006109238635
 10
139.630993608468
 20
35.3001915327733
 10
139.630991402146
 20
35.3000816125942
 10
139.631041435535
 20
35.2999771175228
 10
139.631313293344
 20
35.2998459068982
 10
139.631462780643
 20
35.2997393637617
 10
139.63151443256
 20
35.2996034120134
 10
139.631587676088
 20
35.2995286842448
 10
139.631735052228
 20
35.2995315825661
 10
139.631864712387
 20
35.2995964420556
 10
139.632092933992
 20
35.2995480998495
 10
139.632358701613
 20
35.2994062130714
 10
139.632614175546
 20
35.2992167882436
 10
139.632812122245
 20
35.2990338836993
 10
139.632994344107
 20
35.2988176695236
 10
139.633161021718
 20
35.2986043676851
 10
139.633319507675
 20
35.2984905930138
 10
139.633520614658
 20
35.2984148388115
 10
139.633513191583
 20
35.2985620746794
 10
139.633375964622
 20
35.2986631809645
 10
139.63332329541
 20
35.2988907205519
 10
139.63337447441
 20
35.2989815904605
 10
139.63341087504
 20
35.2990462209127
 10
139.633528791101
 20
35.299059552999
 10
139.633695364122
 20
35.2990426695989
 10
139.633802768391
 20
35.2989280182389
 10
139.633928946157
 20
35.2988149978055
 10
139.634070260497
 20
35.2986865328319
 10
139.634188038507
 20
35.298573480852
 10
139.634312918993
 20
35.2984173321328
 10
139.634395919501
 20
35.2983135495213
 10
139.634385842381
 20
35.2981550555374
 10
139.634373120065
 20
35.2979549576391
 10
139.634233724336
 20
35.2977828788754
 10
139.634026559783
 20
35.297656916321
 10
139.633646068034
 20
35.2974950775431
 10
139.633311335427
 20
35.2973662727495
 10
139.632954399199
 20
35.2972873082105
 10
139.632732127313
 20
35.2973230452883
 10
139.6325739376
 20
35.2974384723425
 10
139.632433913635
 20
35.2974453479382
 10
139.632290433422
 20
35.2973479723065
 10
139.63230944123
 20
35.2972006467744
 10
139.632327392865
 20
35.2969576185538
 10
139.632186428038
 20
35.2968052859799
 10
139.632049036892
 20
35.2967193108004
 10
139.631915767334
 20
35.2966621426921
 10
139.631800089814
 20
35.29655964171
 10
139.631815780224
 20
35.2964340452689
 10
139.631820856623
 20
35.2962751123074
 10
139.631856476711
 20
35.2961069591801
 10
139.631902531425
 20
35.2959569890633
 10
139.632038006508
 20
35.295835196812
 10
139.632171077221
 20
35.2957838457204
 10
139.632316709522
 20
35.295748223408
 10
139.632417252498
 20
35.2957033034885
 10
139.632468544358
 20
35.2956277593045
 10
139.632476242924
 20
35.2954216764196
 10
139.632470979292
 20
35.2951111114018
 10
139.632380565075
 20
35.294964367609
 10
139.632210698035
 20
35.2948132478536
 10
139.632003505869
 20
35.2947155057712
 10
139.631939351233
 20
35.2946505016269
 10
139.631928785888
 20
35.2945624487889
 10
139.631968035474
 20
35.2944487111616
 10
139.63211779807
 20
35.2942582815023
 10
139.632943993535
 20
35.2932627963366
 10
139.633072152395
 20
35.293155200567
 10
139.633199882297
 20
35.293088317292
 10
139.633436024412
 20
35.2930801273096
 10
139.63357636129
 20
35.2930843057189
 10
139.633770199982
 20
35.2930836536738
 10
139.633943185866
 20
35.2930742690341
 10
139.63412175308
 20
35.2929534107211
 10
139.634290581564
 20
35.2928478678567
 10
139.634454001953
 20
35.2927242496847
 10
139.634607043058
 20
35.2926313005431
 10
139.634789277721
 20
35.2926292179842
 10
139.634946577083
 20
35.2927070953617
 10
139.635116634415
 20
35.2927819516941
 10
139.635278565125
 20
35.2929452098461
 10
139.635297024426
 20
35.2933869663975
 10
139.635517320878
 20
35.2937014685584
 10
139.63600411676
 20
35.293888371313
 10
139.63621801748
 20
35.2940337750903
 10
139.636385423371
 20
35.2942516855577
 10
139.636605280144
 20
35.2942558765663
 10
139.636863088174
 20
35.2941966985175
 10
139.636843979194
 20
35.2940668969217
 10
139.636713004103
 20
35.2939398777305
 10
139.636597179127
 20
35.293790650387
 10
139.636547486621
 20
35.2936350104833
 10
139.636550817085
 20
35.2935188966931
 10
139.636636286712
 20
35.2933962142695
 10
139.636762897827
 20
35.2933300192672
 10
139.63695390018
 20
35.2932701916971
 10
139.636942151043
 20
35.2927916596232
 10
139.637020097908
 20
35.2926735995519
 10
139.637142197749
 20
35.2926269537325
 10
139.637322656959
 20
35.2925756368563
 10
139.637520074784
 20
35.2925682819687
 10
139.637754794209
 20
35.2926104113973
 10
139.637948512936
 20
35.2926912768933
 10
139.638175909912
 20
35.29296200774
 10
139.638279198845
 20
35.2931122384897
 10
139.638389401323
 20
35.2932436887386
 10
139.638393268764
 20
35.2933573272764
 10
139.638306835133
 20
35.2934700600582
 10
139.638198543346
 20
35.2935943691731
 10
139.638249457441
 20
35.2937277242197
 10
139.638333493328
 20
35.2937984618269
 10
139.638804968012
 20
35.29402062248
 10
139.638910284168
 20
35.294148635633
 10
139.638885596239
 20
35.294373689464
 10
139.638899903665
 20
35.294585244645
 10
139.638984987389
 20
35.29477463898
 10
139.639076561937
 20
35.2948321922018
 10
139.63918227711
 20
35.294806676021
 10
139.639270307013
 20
35.2946982880744
 10
139.63942784358
 20
35.2945163640631
 10
139.639625921027
 20
35.2943182425361
 10
139.639809597748
 20
35.2941780527355
 10
139.640019041611
 20
35.2940647514324
 10
139.640217237687
 20
35.2939812901878
 10
139.640390459787
 20
35.2939497619999
 10
139.64051575733
 20
35.2938917617451
 10
139.640484825022
 20
35.293770380698
 10
139.640328668382
 20
35.2936147518081
 10
139.64019387477
 20
35.2934260063644
 10
139.640227230553
 20
35.2933458904398
 10
139.640420285941
 20
35.2931304751562
 10
139.640403584088
 20
35.2929068865898
 10
139.64020522457
 20
35.2920926589184
 10
139.640223661295
 20
35.2916699561306
 10
139.640225790311
 20
35.2914800689783
 10
139.640336086234
 20
35.2912905917061
 10
139.640454798275
 20
35.2913524855675
 10
139.640882904596
 20
35.2920909743295
 10
139.641247882993
 20
35.2923641976627
 10
139.641424494354
 20
35.2926145051227
 10
139.641545817347
 20
35.2928007339875
 10
139.641806414698
 20
35.2929836905768
 10
139.642115681678
 20
35.2930463992361
 10
139.642393842273
 20
35.2929937776226
 10
139.642555684018
 20
35.2929832482997
 10
139.642671247904
 20
35.2930328230677
 10
139.642873700308
 20
35.2932863032548
 10
139.64297521348
 20
35.2935664784232
 10
139.64288252878
 20
35.2937363245264
 10
139.64273726496
 20
35.2938055276858
 10
139.642406079366
 20
35.2939798673543
 10
139.642228666316
 20
35.2942488533758
 10
139.642217820568
 20
35.2948269553116
 10
139.642103406995
 20
35.2951012909547
 10
139.64172618339
 20
35.2954364528262
 10
139.641579573069
 20
35.2956510126904
 10
139.641547801804
 20
35.2958863443425
 10
139.641751109854
 20
35.2958787757079
 10
139.642273936504
 20
35.2957472650399
 10
139.642642076167
 20
35.2956833377288
 10
139.642872608234
 20
35.2955348391457
 10
139.643213038294
 20
35.2953110836034
 10
139.643390651529
 20
35.2952091490391
 10
139.64357757475
 20
35.2951329087235
 10
139.643774825908
 20
35.2951030621797
 10
139.643942011936
 20
35.2951304202172
 10
139.644128193898
 20
35.2952410960656
 10
139.644258980728
 20
35.2953182612754
 10
139.644336342118
 20
35.2954144492118
 10
139.644396582403
 20
35.295526593308
 10
139.644407301717
 20
35.2956535067413
 10
139.644317889818
 20
35.2958034092589
 10
139.644123783202
 20
35.2958488429718
 10
139.643975921275
 20
35.2958857434971
 10
139.643849123592
 20
35.2959393196785
 10
139.643787430422
 20
35.2960884546543
 10
139.643729731919
 20
35.2963245244318
 10
139.643668005251
 20
35.2966409700726
 10
139.643570199164
 20
35.29682734214
 10
139.643431851447
 20
35.2969460767722
 10
139.64324164403
 20
35.2970004778744
 10
139.642987551445
 20
35.2971331035507
 10
139.64291702754
 20
35.2972110269155
 10
139.642878784866
 20
35.2972986828633
 10
139.643016836962
 20
35.2974118176755
 10
139.643275656919
 20
35.2974606031402
 10
139.643673535874
 20
35.2974505172903
 10
139.644067846528
 20
35.2974484061587
 10
139.644343328264
 20
35.2976044532486
 10
139.644826865113
 20
35.2978710115004
 10
139.645061628567
 20
35.2980029435155
 10
139.645063879055
 20
35.2981892336879
 10
139.644933159276
 20
35.2987457312111
 10
139.644908374136
 20
35.2991440219085
 10
139.644772793144
 20
35.299428438576
 10
139.644370255854
 20
35.2998054830173
 10
139.643963039558
 20
35.3000722932977
 10
139.643598840178
 20
35.3004204400281
 10
139.643502622122
 20
35.3006270870946
 10
139.643507763913
 20
35.3008267691209
 10
139.643801654968
 20
35.3008859289624
 10
139.644106995794
 20
35.3008082471275
 10
139.644652074775
 20
35.3006042653697
 10
139.645140754147
 20
35.3004524920952
 10
139.645433946905
 20
35.3004325903956
 10
139.645686838083
 20
35.3005484621323
 10
139.645959612998
 20
35.300778868856
 10
139.646051461057
 20
35.3010920498965
 10
139.645925088429
 20
35.3015179896096
 10
139.645983194497
 20
35.3017962933191
 10
139.646207435302
 20
35.3019223728984
 10
139.646417745431
 20
35.3019612168557
 10
139.646637856807
 20
35.3020406291105
 10
139.646884962082
 20
35.3022284025119
 10
139.646991566811
 20
35.3024079723905
 10
139.647059096581
 20
35.302622532238
 10
139.647019648179
 20
35.3028580935591
 10
139.646870577511
 20
35.3033899328972
 10
139.646930444567
 20
35.3037014758198
 10
139.647141638973
 20
35.3041156095275
 10
139.647604308938
 20
35.3045988177776
 10
139.647810910052
 20
35.3045751109512
 10
139.647939144432
 20
35.3044979111259
 10
139.6479776437
 20
35.3043403874675
 10
139.647956576896
 20
35.3041492235172
 10
139.647801388662
 20
35.3037646120193
 10
139.648003310974
 20
35.3034617906357
 10
139.647884918936
 20
35.3024692190207
 10
139.648018202831
 20
35.3021021858507
 10
139.648585245306
 20
35.3018311973192
 10
139.648498696035
 20
35.3013028467633
 10
139.648713824126
 20
35.3009653469722
 10
139.649092303955
 20
35.3008990219572
 10
139.649498312729
 20
35.3009993611132
 10
139.649701891465
 20
35.3012015644436
 10
139.64964774556
 20
35.3017678992522
 10
139.649618681058
 20
35.3021273516187
 10
139.649774070838
 20
35.302417594459
 10
139.649974648001
 20
35.3028752070632
 10
139.649958854031
 20
35.303367940711
 10
139.649836825469
 20
35.3045284563498
 10
139.64987760296
 20
35.3050725812412
 10
139.650451864946
 20
35.3052941037015
 10
139.650573645641
 20
35.3059022509926
 10
139.650661691245
 20
35.30610165743
 10
139.650914431533
 20
35.3062925822652
 10
139.651041737788
 20
35.3061453784523
 10
139.651147509661
 20
35.3058003099125
 10
139.651191764754
 20
35.3051584223129
 10
139.651273784307
 20
35.3050344147905
 10
139.651306242483
 20
35.3045154754883
 10
139.65150393869
 20
35.3042990022446
 10
139.651823888758
 20
35.3042072919333
 10
139.652287106589
 20
35.3041354908432
 10
139.652563385213
 20
35.3042224094096
 10
139.652610786683
 20
35.3044016459566
 10
139.652509355719
 20
35.3045565319033
 10
139.652571595156
 20
35.3050170011162
 10
139.652652072129
 20
35.3051041515591
 10
139.653150943916
 20
35.3046372556109
 10
139.653485316422
 20
35.3044555376164
 10
139.653740444029
 20
35.3043553168364
 10
139.653822233357
 20
35.3041932747687
 10
139.654071708137
 20
35.3039990786343
 10
139.654568844882
 20
35.3038729364741
 10
139.655754002097
 20
35.3037619901347
 10
139.656152111996
 20
35.303239612981
 10
139.656646730599
 20
35.3027378965722
 10
139.656639350104
 20
35.3026159429196
 10
139.656362071616
 20
35.302550134234
 10
139.656024693026
 20
35.3023275978071
 10
139.656098019659
 20
35.3021175826689
 10
139.656245862967
 20
35.3019386081102
 10
139.656739742042
 20
35.3015775400634
 10
139.656608936333
 20
35.3015010920992
 10
139.655820450906
 20
35.3014541442132
 10
139.655363888916
 20
35.3012490876989
 10
139.655190578037
 20
35.3010542938458
 10
139.65514669944
 20
35.3007796389736
 10
139.655241779788
 20
35.3006345964098
 10
139.65538592349
 20
35.3005137943111
 10
139.655348944559
 20
35.3003856309636
 10
139.655065421943
 20
35.3002429904879
 10
139.654314029556
 20
35.3000375923774
 10
139.653719305212
 20
35.3002069449165
 10
139.65309498596
 20
35.3002371975189
 10
139.652451878575
 20
35.2995242151819
 10
139.652195920849
 20
35.2988220426558
 10
139.651921033901
 20
35.2983978543271
 10
139.651930613998
 20
35.298118173937
 10
139.652043026334
 20
35.2978315709139
 10
139.6523757293
 20
35.2974310926189
 10
139.65263196553
 20
35.2971899521513
 10
139.652846165145
 20
35.2968748982053
 10
139.652880346758
 20
35.296648075545
 10
139.652810755281
 20
35.2965061515236
 10
139.652617048125
 20
35.2964024803892
 10
139.652401337704
 20
35.296441209777
 10
139.651861829567
 20
35.2964634851867
 10
139.650779569502
 20
35.2964124607118
 10
139.650358377519
 20
35.2963150715124
 10
139.650091927509
 20
35.2959705591851
 10
139.650004632944
 20
35.2953690716997
 10
139.650022352299
 20
35.2951329927284
 10
139.650165634337
 20
35.2949043310623
 10
139.650405326993
 20
35.294746650384
 10
139.650929551266
 20
35.2945235863303
 10
139.651088416936
 20
35.2943340328091
 10
139.65092394242
 20
35.2942274729783
 10
139.650654125105
 20
35.2941737107769
 10
139.64999074848
 20
35.2940660193006
 10
139.649620571443
 20
35.2942716873449
 10
139.649388387057
 20
35.2945048640271
 10
139.649069238575
 20
35.2946299820395
 10
139.64857555052
 20
35.2945865436831
 10
139.647841279447
 20
35.2945603806481
 10
139.647577676446
 20
35.2946868172405
 10
139.647368410121
 20
35.2948025429209
 10
139.647126580498
 20
35.2947321466028
 10
139.646863749215
 20
35.2945654100967
 10
139.646753857595
 20
35.2943469935458
 10
139.646719740582
 20
35.2939386482274
 10
139.646724161138
 20
35.2937249292288
 10
139.646839068314
 20
35.2936043546548
 10
139.647629757687
 20
35.2936565903721
 10
139.647798567231
 20
35.2936165421153
 10
139.647937130964
 20
35.293527756824
 10
139.647933431257
 20
35.2933926464572
 10
139.647699371694
 20
35.293060412692
 10
139.647166932544
 20
35.2928973356183
 10
139.646768144629
 20
35.2923282991115
 10
139.646666138158
 20
35.2916772597172
 10
139.646285099003
 20
35.2912820405028
 10
139.646059220953
 20
35.2910340864794
 10
139.646100889011
 20
35.2907208807668
 10
139.646427377079
 20
35.2906102479883
 10
139.647829306975
 20
35.2912280730696
 10
139.648269350399
 20
35.2911067842331
 10
139.648332266305
 20
35.2907485947293
 10
139.648182273766
 20
35.2903466656052
 10
139.648586086316
 20
35.2900831806756
 10
139.64874172479
 20
35.2897916099867
 10
139.648606865896
 20
35.2892344930376
 10
139.647535234745
 20
35.2887866860663
 10
139.64786248988
 20
35.2880452795115
 10
139.64875044234
 20
35.2870814864588
 10
139.649200835402
 20
35.2872379806272
 10
139.649617161642
 20
35.2874071085246
 10
139.650081269705
 20
35.2873058942373
 10
139.6506472704
 20
35.2872654358938
 10
139.651209404773
 20
35.2875699693052
 10
139.651724065849
 20
35.2881473844629
 10
139.652161781283
 20
35.2878645526575
 10
139.652192671607
 20
35.2873516187787
 10
139.652468021822
 20
35.2868250169917
 10
139.65321763733
 20
35.2867372872139
 10
139.653559102012
 20
35.2862778904128
 10
139.654606153368
 20
35.2856722135637
 10
139.654129303681
 20
35.2856773505056
 10
139.652774334475
 20
35.2843570583956
 10
139.652194503397
 20
35.2836673766594
 10
139.652018429651
 20
35.2825023461691
 10
139.65124330693
 20
35.281649156369
 10
139.652222657111
 20
35.2822947812654
 10
139.652379615536
 20
35.2831828936484
 10
139.652883110401
 20
35.2840813396508
 10
139.653966624133
 20
35.2840130711482
 10
139.655119946723
 20
35.2845892058239
 10
139.657215182955
 20
35.284340828158
 10
139.658077616213
 20
35.2846863873935
 10
139.657887808335
 20
35.2840898999007
 10
139.658157256417
 20
35.2835617208675
 10
139.660462123186
 20
35.2829905455204
 10
139.660939755969
 20
35.2821883666222
 10
139.6614951653
 20
35.2822025546401
 10
139.661940655199
 20
35.2827407053418
 10
139.661912703868
 20
35.2831742150865
 10
139.661593392468
 20
35.2835100319743
 10
139.662407766597
 20
35.2845683076617
 10
139.662205995868
 20
35.2848224030605
 10
139.661211390334
 20
35.2841871585422
 10
139.66091209744
 20
35.2846638841959
 10
139.660204866203
 20
35.284522450543
 10
139.660026999328
 20
35.285050454799
 10
139.659634384829
 20
35.2852765571112
 10
139.6593525918
 20
35.2860971634552
 10
139.660319434027
 20
35.2869724125195
 10
139.659766686914
 20
35.2878946053015
 10
139.65932492266
 20
35.2879084916075
 10
139.658986645935
 20
35.2880964006227
 10
139.658653075195
 20
35.2894802737032
 10
139.658548042539
 20
35.2897022062285
 10
139.65800977926
 20
35.28981103094
 10
139.657281182589
 20
35.289961436644
 10
139.656788476847
 20
35.2905393278511
 10
139.658604247937
 20
35.2903218508904
 10
139.659589666035
 20
35.2909736803243
 10
139.660628598259
 20
35.2909597783751
 10
139.66178722643
 20
35.2914251814762
 10
139.662695790581
 20
35.2909193100523
 10
139.663168932239
 20
35.2901043678921
 10
139.663821338669
 20
35.2896394312051
 10
139.664748465739
 20
35.2895436793088
 10
139.665482625905
 20
35.2895640973973
 10
139.665499248319
 20
35.2900886535544
 10
139.66522588884
 20
35.2901856888324
 10
139.664870274188
 20
35.2905963715493
 10
139.664859966266
 20
35.2910716315667
 10
139.665114588162
 20
35.2919205610177
 10
139.664452869685
 20
35.292009507885
 10
139.66412032274
 20
35.29260021862
 10
139.664094267536
 20
35.2929549052548
 10
139.66303710452
 20
35.2935223908813
 10
139.662470799232
 20
35.2942880379993
 10
139.662802532654
 20
35.2945727141387
 10
139.662852048532
 20
35.2949719122676
 10
139.663163049519
 20
35.2949723344238
 10
139.663279824754
 20
35.2951677658475
 10
139.662996696817
 20
35.2955012346105
 10
139.662926981803
 20
35.2958856215985
 10
139.663253982413
 20
35.2962233667585
 10
139.663696356142
 20
35.296331026189
 10
139.664355568722
 20
35.2960093489799
 10
139.664333294521
 20
35.2963549092324
 10
139.664852058252
 20
35.2964181341922
 10
139.665028901444
 20
35.2967881342078
 10
139.664958247507
 20
35.2971069358171
 10
139.664692793213
 20
35.2973168016651
 10
139.664246868913
 20
35.2974179864267
 10
139.662967354987
 20
35.2966793443875
 10
139.662950883869
 20
35.2970824421373
 10
139.662439361562
 20
35.2969918908173
 10
139.662800966332
 20
35.297304238803
 10
139.663261478466
 20
35.2974305540996
 10
139.663698077894
 20
35.2976791276479
 10
139.663814402448
 20
35.2982466077714
 10
139.66359077983
 20
35.2986334548767
 10
139.663185505632
 20
35.2988165241283
 10
139.662973416005
 20
35.2990231105064
 10
139.662774629481
 20
35.2992180221194
 10
139.662617853189
 20
35.2993717423988
 10
139.662437764179
 20
35.2993568326396
 10
139.662197443543
 20
35.2991813234778
 10
139.66195565908
 20
35.2990185341841
 10
139.661765079269
 20
35.2990442730494
 10
139.661793003787
 20
35.2993116673973
 10
139.662042534101
 20
35.2995100480707
 10
139.662179970715
 20
35.2997760673669
 10
139.661893272659
 20
35.300091387456
 10
139.661657409237
 20
35.3005088710358
 10
139.661922774752
 20
35.3007647783677
 10
139.662217495563
 20
35.3007527735311
 10
139.662489402726
 20
35.3005475107317
 10
139.662680571921
 20
35.3002810396995
 10
139.662695956551
 20
35.2999746160802
 10
139.662667098148
 20
35.2996597593875
 10
139.663007603301
 20
35.2996561249972
 10
139.663413524946
 20
35.2996743819157
 10
139.663717228117
 20
35.2998538458857
 10
139.663915794922
 20
35.3001052571738
 10
139.663844866899
 20
35.3004764260534
 10
139.663818943946
 20
35.3007301257356
 10
139.664157186837
 20
35.3007824185456
 10
139.664505777993
 20
35.3004641300469
 10
139.664868215459
 20
35.3004026526923
 10
139.665046332725
 20
35.300399312487
 10
139.665202934517
 20
35.3002658841972
 10
139.665481856647
 20
35.3001405707483
 10
139.665638975396
 20
35.300023338969
 10
139.665375310807
 20
35.2996565438609
 10
139.664823118265
 20
35.2990804229372
 10
139.664764129379
 20
35.2988394018525
 10
139.664870234937
 20
35.2986338384253
 10
139.665057347555
 20
35.2984945695715
 10
139.66528558994
 20
35.2984401369854
 10
139.666148189953
 20
35.2985311172833
 10
139.666831556824
 20
35.2987003526602
 10
139.666957231309
 20
35.2989649173561
 10
139.667148814628
 20
35.2995710226917
 10
139.66740506414
 20
35.2995207281003
 10
139.667680988136
 20
35.2995224084982
 10
139.667794051406
 20
35.2995915640918
 10
139.667792802984
 20
35.3000130544731
 10
139.667907831499
 20
35.3001262844925
 10
139.668792226123
 20
35.2999608387275
 10
139.670319516858
 20
35.2998899649594
 10
139.670438679357
 20
35.2998169398104
 10
139.670373506942
 20
35.2996956182695
 10
139.67024230173
 20
35.299635267423
 10
139.669835347436
 20
35.2995420162237
 10
139.6696804115
 20
35.2994273695218
 10
139.669590550832
 20
35.2991897197961
 10
139.669511687086
 20
35.2990442621024
 10
139.669156836063
 20
35.29882283695
 10
139.66918867432
 20
35.2985635940823
 10
139.669584247397
 20
35.2981854717965
 10
139.67032755457
 20
35.2979286052942
 10
139.67102793932
 20
35.2978874063689
 10
139.67161215326
 20
35.2981318494912
 10
139.671779225974
 20
35.2982764392558
 10
139.671776686984
 20
35.2985677887288
 10
139.671624264051
 20
35.2988228369569
 10
139.671347104315
 20
35.2989900584187
 10
139.671328691158
 20
35.2992335665265
 10
139.671525911099
 20
35.2993366906185
 10
139.671957560223
 20
35.2993178366497
 10
139.672182917021
 20
35.2993010176316
 10
139.672412650503
 20
35.2990920342911
 10
139.672754735029
 20
35.2989817876328
 10
139.673160242136
 20
35.2989000337116
 10
139.673393115111
 20
35.2991612613871
 10
139.673597828471
 20
35.2991773804034
 10
139.673852405191
 20
35.2991785722393
 10
139.674470877898
 20
35.298982719026
 10
139.675305527426
 20
35.2990311500625
 10
139.675793689877
 20
35.2991212315932
 10
139.676405064927
 20
35.2991081047126
 10
139.676644642419
 20
35.2989798801085
 10
139.67700662108
 20
35.2988854853338
 10
139.677580728972
 20
35.2988363244484
 10
139.67758610061
 20
35.2987397566718
 10
139.676650470587
 20
35.2983184865347
 10
139.676292709283
 20
35.2980614093081
 10
139.676227825423
 20
35.2977328047668
 10
139.6760262432
 20
35.2977295777927
 10
139.675843501053
 20
35.2977507240221
 10
139.675854339916
 20
35.2980186469249
 10
139.67564826574
 20
35.2983606389807
 10
139.675283659484
 20
35.2984554095919
 10
139.673881340531
 20
35.2980825079599
 10
139.673456461018
 20
35.297854102314
 10
139.673054123954
 20
35.2978274257219
 10
139.672845068506
 20
35.2977716956573
 10
139.672681769938
 20
35.2975892902083
 10
139.672695921419
 20
35.2972135843092
 10
139.672614247018
 20
35.2971468112606
 10
139.672150554566
 20
35.2971922850468
 10
139.671737055745
 20
35.2969932886992
 10
139.671575572429
 20
35.2969658516433
 10
139.671284280832
 20
35.2970883098261
 10
139.671011916039
 20
35.2970964878344
 10
139.6708201969
 20
35.2970300954568
 10
139.670841939775
 20
35.2966620172811
 10
139.670377521011
 20
35.2966630543659
 10
139.670174958398
 20
35.2963479095603
 10
139.669761850547
 20
35.2964878165118
 10
139.66959862116
 20
35.2961722317036
 10
139.669054363862
 20
35.296220154175
 10
139.668830642425
 20
35.296036641206
 10
139.668520325764
 20
35.2960431641957
 10
139.668380565783
 20
35.2957390899673
 10
139.667919018562
 20
35.2955542202776
 10
139.667611844869
 20
35.2951655140405
 10
139.667109390824
 20
35.2948830439686
 10
139.667223115068
 20
35.2946878332829
 10
139.667594164709
 20
35.2949124933634
 10
139.668281879486
 20
35.2950627385874
 10
139.668711412783
 20
35.2950482085916
 10
139.669211108295
 20
35.2953084988696
 10
139.66971349219
 20
35.2950940892558
 10
139.670255189587
 20
35.2952433880587
 10
139.6707036508
 20
35.2952258724524
 10
139.671360930218
 20
35.2953692537384
 10
139.671629353134
 20
35.2953241491534
 10
139.671758433894
 20
35.2951654674016
 10
139.671857444891
 20
35.2948699457834
 10
139.67176085301
 20
35.2946646304079
 10
139.671323182943
 20
35.2944612889147
 10
139.671113432958
 20
35.294174491845
 10
139.670635445524
 20
35.2938126246563
 10
139.670202315753
 20
35.2937881401794
 10
139.669478185128
 20
35.2933423734075
 10
139.669488397273
 20
35.2931031749675
 10
139.669459904324
 20
35.2926801930897
 10
139.6693149859
 20
35.292476121148
 10
139.669492510697
 20
35.2923707904881
 10
139.669776842653
 20
35.2922908831521
 10
139.670251267038
 20
35.2926416767464
 10
139.670420769297
 20
35.2929744465311
 10
139.671246044961
 20
35.2926584461602
 10
139.67134567353
 20
35.2930542731671
 10
139.671594266171
 20
35.2930816712515
 10
139.671771077364
 20
35.2932312158967
 10
139.6720983228
 20
35.2931192328214
 10
139.672705810441
 20
35.2930318789318
 10
139.672899223904
 20
35.2930720374732
 10
139.672973048454
 20
35.2932040460199
 10
139.672963839041
 20
35.2934338335464
 10
139.672890658109
 20
35.2936537390181
 10
139.672754119299
 20
35.2938723036616
 10
139.672638732885
 20
35.2940570085839
 10
139.672889785831
 20
35.294141285347
 10
139.673201504907
 20
35.2941751676294
 10
139.673619334621
 20
35.2941466816263
 10
139.673689126867
 20
35.2943201774424
 10
139.673403431366
 20
35.29451388829
 10
139.673219940479
 20
35.2946330661217
 10
139.673127067353
 20
35.2948224803961
 10
139.673433260459
 20
35.2948882593271
 10
139.673562933093
 20
35.2950596869279
 10
139.673769753603
 20
35.2951283739361
 10
139.674075697709
 20
35.2950276906096
 10
139.674186828414
 20
35.2947800725641
 10
139.674512386223
 20
35.2947579831359
 10
139.674688293198
 20
35.2946772985409
 10
139.674954514572
 20
35.2948315856368
 10
139.675141535279
 20
35.294818605835
 10
139.675188113832
 20
35.2944240682694
 10
139.675051572755
 20
35.2941918162383
 10
139.674876145438
 20
35.2940857064326
 10
139.674991402092
 20
35.2939141311517
 10
139.674943854381
 20
35.2936947004522
 10
139.675134459311
 20
35.293539145422
 10
139.675029988486
 20
35.293433450949
 10
139.674873432245
 20
35.2933697052434
 10
139.674595492817
 20
35.2933256801518
 10
139.674264477805
 20
35.2932217325823
 10
139.67409847401
 20
35.2929194866893
 10
139.67404236656
 20
35.2925261053881
 10
139.674182586446
 20
35.2921167048605
 10
139.674641205646
 20
35.2919597110142
 10
139.675116351163
 20
35.2915469375175
 10
139.675230994313
 20
35.2912668883671
 10
139.67550176798
 20
35.290948811504
 10
139.675358520207
 20
35.2906286364537
 10
139.675430141452
 20
35.2904761197667
 10
139.67527081889
 20
35.290312227869
 10
139.675060197346
 20
35.2903082994069
 10
139.674632775892
 20
35.2900740887991
 10
139.674321945445
 20
35.2901840136726
 10
139.674089568538
 20
35.2904633174582
 10
139.673919973101
 20
35.290601634097
 10
139.673520008634
 20
35.2906605759722
 10
139.672969184088
 20
35.2906517002288
 10
139.671399952416
 20
35.2901864365093
 10
139.671119403716
 20
35.2899500023913
 10
139.670926341771
 20
35.2895849691643
 10
139.670744888057
 20
35.2892147069904
 10
139.670457673153
 20
35.2890722404603
 10
139.670041322319
 20
35.2890504342678
 10
139.669764417731
 20
35.2889080235517
 10
139.669421868868
 20
35.2888541395118
 10
139.669414680522
 20
35.2883778182627
 10
139.669419822118
 20
35.2878756643429
 10
139.669620929101
 20
35.2877935865191
 10
139.669929772487
 20
35.2877752091009
 10
139.670228189143
 20
35.287756199599
 10
139.670403600349
 20
35.2876741942515
 10
139.670422543381
 20
35.2872605415764
 10
139.670412064387
 20
35.2870621885729
 10
139.670208152945
 20
35.2870907273784
 10
139.670073499969
 20
35.2870125205933
 10
139.670367623353
 20
35.2868578561651
 10
139.670976368973
 20
35.2866821063437
 10
139.671033804271
 20
35.2865074470382
 10
139.671002221121
 20
35.286350427817
 10
139.670714100813
 20
35.2861122642265
 10
139.670542940816
 20
35.2858356844486
 10
139.670304904725
 20
35.285661912461
 10
139.669752422129
 20
35.2856279647486
 10
139.669261641705
 20
35.2853714791054
 10
139.669018467242
 20
35.2852899452947
 10
139.668945740859
 20
35.2850747932762
 10
139.669046920656
 20
35.284608550378
 10
139.669044433895
 20
35.2842232751412
 10
139.669559437116
 20
35.2842284761798
 10
139.669554310353
 20
35.2844985435658
 10
139.669637189642
 20
35.2846840314264
 10
139.669933422746
 20
35.2847032160303
 10
139.670058749225
 20
35.2846937120179
 10
139.670158515947
 20
35.284590206551
 10
139.670361693305
 20
35.2839697571131
 10
139.670405600619
 20
35.2837526623571
 10
139.66901843007
 20
35.2835113437967
 10
139.669092955835
 20
35.283252235291
 10
139.669808590924
 20
35.2818814080024
 10
139.670380300206
 20
35.2806985972204
 10
139.671908011037
 20
35.2783502293558
 10
139.673239795946
 20
35.2779196252798
 10
139.673454460297
 20
35.2767559029763
 10
139.673177780079
 20
35.2764742841034
 10
139.673920976302
 20
35.2757456346293
 10
139.675209237666
 20
35.2749467987768
 10
139.675515408283
 20
35.2750231478443
 10
139.675679026081
 20
35.2751439799967
 10
139.675859989552
 20
35.2751417611864
 10
139.676023036067
 20
35.2752351201078
 10
139.676183903416
 20
35.2754157845396
 10
139.676261856308
 20
35.275731045127
 10
139.676756473314
 20
35.2759235760873
 10
139.677082449208
 20
35.2755402115429
 10
139.6771049486
 20
35.2753199772354
 10
139.676993067379
 20
35.2751810695759
 10
139.676617070706
 20
35.2750363377981
 10
139.676114387594
 20
35.2743918008378
 10
139.675808000566
 20
35.274180133889
 10
139.675561853661
 20
35.2742160400915
 10
139.674737131769
 20
35.2736697739876
 10
139.6745402357
 20
35.2733043007247
 10
139.674607495676
 20
35.2726256375832
 10
139.674989607372
 20
35.2719047210089
 10
139.675465573532
 20
35.2713317511224
 10
139.676295310699
 20
35.2707910675121
 10
139.677720970947
 20
35.2696897216919
 10
139.680380456284
 20
35.2687592272868
 10
139.684409833889
 20
35.2667551245369
 10
139.685645979096
 20
35.2664910565
 10
139.686431881426
 20
35.2661724665459
 10
139.687028454768
 20
35.2658942129515
 10
139.689010747933
 20
35.26451438059
 10
139.689671678773
 20
35.2642572469222
 10
139.690130796126
 20
35.2642358555976
 10
139.691848666085
 20
35.2639753623181
 10
139.693629925851
 20
35.263058803258
 10
139.695574999361
 20
35.262415677668
 10
139.697896661759
 20
35.2616981903804
 10
139.698792046664
 20
35.2614671502296
 10
139.699910108548
 20
35.2614164265845
 10
139.702076122986
 20
35.2607290347964
 10
139.703252440817
 20
35.2604191817807
 10
139.704317338818
 20
35.2604495334968
 10
139.705233555984
 20
35.2600610376794
 10
139.706651626121
 20
35.2598805280746
 10
139.709224303249
 20
35.2595304831349
 10
139.710706720544
 20
35.2594456046634
 10
139.711802723852
 20
35.259516033557
 10
139.714205655057
 20
35.2599462178253
 10
139.714742588532
 20
35.2606236999769
 10
139.714727753051
 20
35.2609848415454
 10
139.715053211673
 20
35.2616322852219
 10
139.715597822881
 20
35.2622536601786
 10
139.715376850321
 20
35.2625986595339
 10
139.715152894375
 20
35.2628518451776
 10
139.714904807345
 20
35.2629754367019
 10
139.714685780309
 20
35.2630390518778
 10
139.714687295418
 20
35.2630945528141
 10
139.714725844821
 20
35.2631720617014
 10
139.714799975608
 20
35.2632473252913
 10
139.714859987662
 20
35.2632888727191
 10
139.715076040948
 20
35.2633008578397
 10
139.715112490262
 20
35.2632198938428
 10
139.715116358945
 20
35.2631294656271
 10
139.715166212351
 20
35.2630491366294
 10
139.71525396075
 20
35.2630107116614
 10
139.715676362022
 20
35.2629912257417
 10
139.716178971516
 20
35.2630432206168
 10
139.716622261089
 20
35.2630254356104
 10
139.716940503966
 20
35.2630647777489
 10
139.717165327188
 20
35.2631301691576
 10
139.717610083016
 20
35.2633306893536
 10
139.718108322157
 20
35.2633396228033
 10
139.718921578814
 20
35.2632407624528
 10
139.719342917333
 20
35.2631921215982
 10
139.719845646858
 20
35.2631831428119
 10
139.722831056255
 20
35.2631135735252
 10
139.724262011511
 20
35.2631175781251
 10
139.725302588295
 20
35.2632230625809
 10
139.726320827536
 20
35.2634724818099
 10
139.727141212368
 20
35.2637688137973
 10
139.72753476411
 20
35.2639356157506
 10
139.727819717699
 20
35.2641780173656
 10
139.727959357778
 20
35.2644295943617
 10
139.727997891287
 20
35.2647637787224
 10
139.727854838007
 20
35.2651593283908
 10
139.727610453362
 20
35.2655129030362
 10
139.727489698507
 20
35.265693731933
 10
139.727498032706
 20
35.265803385522
 10
139.727645618763
 20
35.265871344313
 10
139.727900964099
 20
35.2658842801297
 10
139.728117577375
 20
35.2657360804635
 10
139.728202776778
 20
35.2656042093791
 10
139.728556104105
 20
35.2654608635912
 10
139.7288877403
 20
35.2652527306086
 10
139.730698031192
 20
35.2650263292321
 10
139.730948890435
 20
35.2652063975363
 10
139.731088527997
 20
35.2654189350447
 10
139.731307603682
 20
35.2654645041828
 10
139.731496504464
 20
35.2658291149246
 10
139.73172309167
 20
35.265628757273
 10
139.731970204067
 20
35.2656461278133
 10
139.73227220826
 20
35.26567736245
 10
139.732589470083
 20
35.265796271992
 10
139.732700610998
 20
35.2655977939669
 10
139.732864464959
 20
35.2654579983673
 10
139.733069986168
 20
35.265343072012
 10
139.733249230759
 20
35.2652929387045
 10
139.733175944851
 20
35.2650233629145
 10
139.73324279917
 20
35.2648207645959
 10
139.73298307416
 20
35.264778543209
 10
139.732400570537
 20
35.2647728966705
 10
139.73201147533
 20
35.2646769175303
 10
139.731675722978
 20
35.2647164271614
 10
139.731378327032
 20
35.2646176899466
 10
139.731176686513
 20
35.2644161402183
 10
139.731031492267
 20
35.2640384446665
 10
139.730957027576
 20
35.2634828651791
 10
139.731118062262
 20
35.262867969965
 10
139.731449159793
 20
35.2624817844585
 10
139.732017828939
 20
35.2620072927722
 10
139.732718553831
 20
35.2615830119991
 10
139.733499702299
 20
35.261201289409
 10
139.733942290534
 20
35.2610444139286
 10
139.73436752149
 20
35.2610238005326
 10
139.734588521239
 20
35.2610215955183
 10
139.734791963996
 20
35.261064137609
 10
139.735199459879
 20
35.2612698925639
 10
139.735197821401
 20
35.2616935943632
 10
139.735106071204
 20
35.2619052195554
 10
139.735244156973
 20
35.2622157173299
 10
139.735088128351
 20
35.2625328189012
 10
139.735221164837
 20
35.2626619383464
 10
139.73536913841
 20
35.262627695816
 10
139.735523890905
 20
35.2626251476791
 10
139.736329040284
 20
35.2627743600614
 10
139.736403941086
 20
35.2625584200277
 10
139.736576018528
 20
35.2624275551298
 10
139.736586129691
 20
35.2623183533212
 10
139.736471959803
 20
35.2621602280532
 10
139.7364596042
 20
35.2619482299974
 10
139.736405930191
 20
35.2617382833411
 10
139.736296966761
 20
35.2616456359342
 10
139.736101286438
 20
35.261590242659
 10
139.73597421835
 20
35.2614268642642
 10
139.736127515152
 20
35.2611833436721
 10
139.736423664161
 20
35.2609309511481
 10
139.736619666596
 20
35.2607985909963
 10
139.736800131444
 20
35.2607524456125
 10
139.737056082437
 20
35.2607376791578
 10
139.737234309911
 20
35.2608132632082
 10
139.73751193949
 20
35.2611328346176
 10
139.73799428033
 20
35.2617775853925
 10
139.738078226503
 20
35.261801028285
 10
139.738312634908
 20
35.2617108742786
 10
139.738571642884
 20
35.2617907311261
 10
139.738690440916
 20
35.2616290223806
 10
139.738915832525
 20
35.2615201082973
 10
139.7391463302
 20
35.2616148455183
 10
139.739326246584
 20
35.261786385701
 10
139.739603915529
 20
35.2615125014417
 10
139.739739670776
 20
35.2615458113301
 10
139.739861934792
 20
35.2615156145124
 10
139.739844911132
 20
35.2614321477001
 10
139.739717532427
 20
35.2613250116771
 10
139.739822416666
 20
35.2610782143503
 10
139.739794542675
 20
35.2609380156962
 10
139.739582581895
 20
35.2607848976905
 10
139.739476375909
 20
35.2603820454736
 10
139.739588421836
 20
35.2599226317622
 10
139.739949437358
 20
35.2598702843713
 10
139.740079257648
 20
35.2595642059423
 10
139.740340523155
 20
35.2596024759687
 10
139.740506062892
 20
35.2593948127709
 10
139.741173339762
 20
35.2594854346218
 10
139.741294213804
 20
35.25922316852
 10
139.74130610291
 20
35.2590679088611
 10
139.741280715252
 20
35.2589360607733
 10
139.741241470893
 20
35.258849458882
 10
139.740952949258
 20
35.2585923388333
 10
139.741026203002
 20
35.2583793169484
 10
139.741238532212
 20
35.2580990229305
 10
139.741421375413
 20
35.2579039300443
 10
139.741782614911
 20
35.257763947731
 10
139.741996731564
 20
35.2578196210615
 10
139.741971086744
 20
35.2581653352069
 10
139.742560245856
 20
35.2581479404928
 10
139.742865882853
 20
35.2582690686056
 10
139.743312095392
 20
35.258596774331
 10
139.743723779334
 20
35.2587623548133
 10
139.743931834323
 20
35.2586779320616
 10
139.744250078466
 20
35.2587781187744
 10
139.744391666355
 20
35.258695417471
 10
139.744495678502
 20
35.2584529105916
 10
139.744795419994
 20
35.258324217191
 10
139.744817537406
 20
35.2581612149895
 10
139.745365221053
 20
35.2578195355445
 10
139.745605222933
 20
35.2575601990756
 10
139.745855754346
 20
35.2571917987431
 10
139.745962035828
 20
35.257122656202
 10
139.746046395929
 20
35.2570991160661
 10
139.797376391507
 20
35.3125422978101
  0
LWPOLYLINE
  5
20004
100
AcDbEntity
  8
0
100
AcDbPolyline
 70
0
 90
34
 10
139.78592001327
 20
35.6713320488123
 10
139.784801885787
 20
35.670822153528
 10
139.783953644537
 20
35.6703280650297
 10
139.783108424252
 20
35.6698354255369
 10
139.782974446038
 20
35.6696639015207
 10
139.782847821164
 20
35.6689783819474
 10
139.782673985982
 20
35.6689667556469
 10
139.782610205882
 20
35.6687767806766
 10
139.782865756104
 20
35.6685776132957
 10
139.78272758344
 20
35.6683925439349
 10
139.782041435543
 20
35.6671149559093
 10
139.78299276744
 20
35.6666883946471
 10
139.783098973807
 20
35.6662708955634
 10
139.782575537874
 20
35.6660631391705
 10
139.782161317826
 20
35.6656991871605
 10
139.782757013083
 20
35.6652189066115
 10
139.783252512617
 20
35.6656641579153
 10
139.783606790813
 20
35.6660966099855
 10
139.783756437515
 20
35.6662197080773
 10
139.784179570521
 20
35.6670024985413
 10
139.784896698631
 20
35.6665534257671
 10
139.78520419354
 20
35.6670973964681
 10
139.785621612879
 20
35.6673991336767
 10
139.786319035275
 20
35.6675271109506
 10
139.786971123521
 20
35.6677512859527
 10
139.787175399699
 20
35.6679543409004
 10
139.787225110703
 20
35.6681704122112
 10
139.787053214703
 20
35.669390561458
 10
139.786993496478
 20
35.669727169944
 10
139.786780970779
 20
35.6702521282266
 10
139.786436480669
 20
35.6709164113775
 10
139.78632106373
 20
35.6711364028969
 10
139.786083599683
 20
35.6712962701811
 10
139.78592001327
 20
35.6713320488123
  0
ENDSEC
  0
SECTION
  2
OBJECTS
  0
DICTIONARY
  5
C
330
0
100
AcDbDictionary
281
     1
  3
ACAD_GROUP
350
D
  3
ACAD_LAYOUT
350
1A
  3
ACAD_MLEADERSTYLE
350
43
  3
ACAD_PLOTSETTINGS
350
19
  3
ACAD_PLOTSTYLENAME
350
E
  3
ACAD_TABLESTYLE
350
42
  0
DICTIONARY
  5
D
102
{ACAD_REACTORS
330
C
102
}
330
C
100
AcDbDictionary
281
     1
  0
DICTIONARY
  5
1A
102
{ACAD_REACTORS
330
C
102
}
330
C
100
AcDbDictionary
281
     1
  3
Layout1
350
1E
  3
Model
350
22
  0
DICTIONARY
  5
43
102
{ACAD_REACTORS
330
C
102
}
330
C
100
AcDbDictionary
281
     1
  0
DICTIONARY
  5
19
102
{ACAD_REACTORS
330
C
102
}
330
C
100
AcDbDictionary
281
     1
  0
ACDBDICTIONARYWDFLT
  5
E
102
{ACAD_REACTORS
330
C
102
}
330
C
100
AcDbDictionary
281
     1
  3
Normal
350
F
100
AcDbDictionaryWithDefault
340
F
  0
DICTIONARY
  5
42
102
{ACAD_REACTORS
330
C
102
}
330
C
100
AcDbDictionary
281
     1
  0
LAYOUT
  5
1E
102
{ACAD_REACTORS
330
1A
102
}
330
1A
100
AcDbPlotSettings
  1

  2
none_device
  4

  6

 40
0.0
 41
0.0
 42
0.0
 43
0.0
 44
0.0
 45
0.0
 46
0.0
 47
0.0
 48
0.0
 49
0.0
140
0.0
141
0.0
142
1.0
143
1.0
 70
   688
 72
     0
 73
     0
 74
     5
  7

 75
    16
 76
     0
 77
     2
 78
   300
147
1.0
148
0.0
149
0.0
100
AcDbLayout
  1
Layout1
 70
     1
 71
     1
 10
0.0
 20
0.0
 11
12.0
 21
9.0
 12
0.0
 22
0.0
 32
0.0
 14
1.000000000000000E+20
 24
1.000000000000000E+20
 34
1.000000000000000E+20
 15
-1.000000000000000E+20
 25
-1.000000000000000E+20
 35
-1.000000000000000E+20
146
0.0
 13
0.0
 23
0.0
 33
0.0
 16
1.0
 26
0.0
 36
0.0
 17
0.0
 27
1.0
 37
0.0
 76
     0
330
1B
  0
LAYOUT
  5
22
102
{ACAD_REACTORS
330
1A
102
}
330
1A
100
AcDbPlotSettings
  1

  2
none_device
  4

  6

 40
0.0
 41
0.0
 42
0.0
 43
0.0
 44
0.0
 45
0.0
 46
0.0
 47
0.0
 48
0.0
 49
0.0
140
0.0
141
0.0
142
1.0
143
1.0
 70
  1712
 72
     0
 73
     0
 74
     0
  7

 75
     0
 76
     0
 77
     2
 78
   300
147
1.0
148
0.0
149
0.0
100
AcDbLayout
  1
Model
 70
     1
 71
     0
 10
0.0
 20
0.0
 11
12.0
 21
9.0
 12
0.0
 22
0.0
 32
0.0
 14
30.0
 24
49.75
 34
0.0
 15
130.5
 25
163.1318914119703
 35
0.0
146
0.0
 13
0.0
 23
0.0
 33
0.0
 16
1.0
 26
0.0
 36
0.0
 17
0.0
 27
1.0
 37
0.0
 76
     0
330
1F
331
29
  0
ENDSEC
  0
EOF
